<svg width="50" height="39" fill="none" xmlns="http://www.w3.org/2000/svg"><path fill="#BBBBBD" d="M0 0h50v38.596H0z"/><path d="M23.888 9.308a5.091 5.091 0 0 0-4.395 8.432.585.585 0 1 0 .876-.775 3.922 3.922 0 1 1 6.735-3.573c.067.258.3.44.567.44h.71c1.04-.002 1.902.534 2.178 1.403a2.232 2.232 0 0 1-.844 2.5.585.585 0 0 0 .673.956 3.401 3.401 0 0 0 1.286-3.81c-.467-1.472-1.878-2.22-3.294-2.22h-.277a5.092 5.092 0 0 0-4.215-3.353Z" fill="#fff"/><path d="M25.585 14.752a.585.585 0 0 0-1.17 0l.003 4.095-.95-.95a.585.585 0 1 0-.827.827l1.946 1.946a.583.583 0 0 0 .415.172h.001c.179 0 .338-.08.446-.206l1.911-1.912a.585.585 0 0 0-.827-.827l-.946.946-.002-4.09Z" fill="#fff"/><path fill-rule="evenodd" clip-rule="evenodd" d="M22.849 25.845c.103.185.244.329.423.428.17.097.35.146.539.146.227 0 .431-.066.611-.195.016.032.037.061.063.087l.001.002.002.001a.31.31 0 0 0 .521-.221v-2.669a.302.302 0 0 0-.09-.217.302.302 0 0 0-.433-.003.294.294 0 0 0-.093.22v.748a1.073 1.073 0 0 0-1.13-.027c-.17.1-.307.241-.41.422-.107.187-.158.402-.158.642 0 .233.05.447.154.636Zm1.31-.088h-.001a.646.646 0 0 1-.294.07c-.182 0-.313-.054-.407-.155-.093-.104-.146-.254-.146-.463 0-.21.053-.359.146-.46a.52.52 0 0 1 .407-.16c.102 0 .2.024.293.07l.001.001a.906.906 0 0 1 .235.165v.768a.906.906 0 0 1-.235.164Z" fill="#fff"/><path d="m15.805 23.337-.002.002-.002.001a.31.31 0 0 0-.084.216v2.442c0 .104.039.195.112.268a.37.37 0 0 0 .268.112h1.46a.31.31 0 0 0 .215-.084l.002-.002.001-.002a.302.302 0 0 0 .092-.218.302.302 0 0 0-.092-.218.302.302 0 0 0-.218-.092h-1.224v-2.206a.302.302 0 0 0-.092-.219.303.303 0 0 0-.218-.092.303.303 0 0 0-.218.092Z" fill="#fff"/><path fill-rule="evenodd" clip-rule="evenodd" d="M18.443 26.268h.002c.179.102.384.151.612.151.224 0 .426-.049.605-.15.182-.102.323-.25.424-.438.098-.184.145-.392.145-.622 0-.23-.047-.439-.145-.622a1.07 1.07 0 0 0-.42-.438 1.212 1.212 0 0 0-.609-.151c-.225 0-.43.05-.612.15a1.05 1.05 0 0 0-.416.435 1.329 1.329 0 0 0-.145.626c0 .227.047.436.145.621.097.187.236.333.414.438Zm1.089-1.424v.001l.002.001c.05.083.08.2.08.358 0 .15-.028.27-.08.363a.49.49 0 0 1-.205.203.6.6 0 0 1-.553-.002.5.5 0 0 1-.192-.197l-.001-.002-.002-.002a.686.686 0 0 1-.08-.363c0-.15.028-.267.079-.358a.49.49 0 0 1 .204-.203.633.633 0 0 1 .273-.062c.106 0 .197.024.277.068a.498.498 0 0 1 .198.195ZM21.724 24.686l-.001-.002c-.053-.051-.155-.09-.334-.09a1.21 1.21 0 0 0-.244.022h-.004c-.071.013-.159.036-.262.07l-.01.003-.072.012h-.009a.277.277 0 0 1-.19-.076l-.003-.004-.004-.004a.282.282 0 0 1-.076-.194c0-.057.014-.114.049-.164a.297.297 0 0 1 .134-.104c.244-.105.497-.157.757-.157.205 0 .387.042.543.13l.001.001c.144.085.255.2.329.343a.975.975 0 0 1 .107.457v1.164c0 .084-.032.159-.092.218l-.001.002-.002.001a.31.31 0 0 1-.215.085.31.31 0 0 1-.215-.085l-.004-.003-.002-.003a.317.317 0 0 1-.058-.085c-.191.132-.42.196-.68.196a.885.885 0 0 1-.382-.085.689.689 0 0 1-.3-.261.723.723 0 0 1-.109-.392c0-.248.099-.45.297-.589.194-.136.456-.198.77-.198h.372c-.012-.104-.046-.169-.088-.207l-.002-.002Zm-.129 1.093a.637.637 0 0 1-.288.07c-.133 0-.211-.026-.254-.058-.036-.028-.061-.07-.061-.15 0-.034.008-.059.02-.078a.178.178 0 0 1 .071-.06c.078-.04.21-.066.409-.066h.327v.178a.856.856 0 0 1-.224.164Z" fill="#fff"/><path d="m25.48 23.758-.003-.003a.333.333 0 0 1-.093-.232v-.017c0-.089.033-.168.096-.23a.326.326 0 0 1 .235-.1h.024c.09 0 .17.035.23.1.066.061.101.14.101.23v.017c0 .09-.036.17-.1.235a.319.319 0 0 1-.23.096h-.025a.332.332 0 0 1-.233-.094l-.002-.002ZM25.501 26.308l.003.003.003.003a.31.31 0 0 0 .216.085.31.31 0 0 0 .215-.085l.002-.001.001-.002a.303.303 0 0 0 .092-.218v-1.764c0-.085-.03-.16-.092-.219a.294.294 0 0 0-.218-.091.302.302 0 0 0-.219.091l-.001.002-.002.001a.31.31 0 0 0-.084.216v1.764c0 .081.029.155.084.215ZM26.528 26.311l-.003-.003a.31.31 0 0 1-.084-.215v-1.764a.31.31 0 0 1 .084-.216l.002-.001.001-.002a.302.302 0 0 1 .219-.091c.084 0 .159.032.218.091a.312.312 0 0 1 .076.122c.063-.05.128-.091.194-.126a.99.99 0 0 1 .466-.108c.17 0 .324.04.46.124l.001.001h.001a.802.802 0 0 1 .293.34c.068.14.102.296.102.462v1.168c0 .084-.033.159-.092.218l-.002.002-.001.001a.31.31 0 0 1-.216.085.31.31 0 0 1-.215-.085l-.003-.003-.003-.003a.31.31 0 0 1-.085-.215v-1.127c0-.15-.034-.242-.082-.295-.045-.05-.12-.085-.249-.085a.553.553 0 0 0-.296.08c-.082.052-.168.13-.257.235v1.192c0 .084-.033.159-.092.218l-.002.002-.001.001a.31.31 0 0 1-.215.085.31.31 0 0 1-.216-.085l-.003-.003Z" fill="#fff"/><path fill-rule="evenodd" clip-rule="evenodd" d="M29.538 27.3c.174.043.342.065.506.065.337 0 .613-.103.807-.323.193-.215.28-.512.28-.875v-1.838a.302.302 0 0 0-.091-.219.302.302 0 0 0-.219-.091.302.302 0 0 0-.218.091l-.002.002-.001.001a.321.321 0 0 0-.053.076 1.031 1.031 0 0 0-.614-.191 1.1 1.1 0 0 0-.95.537h-.001a1.246 1.246 0 0 0-.165.653c0 .24.052.454.16.639.107.18.251.318.432.414.164.091.34.137.524.137.218 0 .412-.056.582-.169v.011c0 .206-.048.338-.124.42-.075.08-.195.13-.384.13-.22 0-.43-.049-.627-.145l-.004-.002-.004-.002a.318.318 0 0 0-.117-.024.273.273 0 0 0-.205.09.288.288 0 0 0-.08.2c0 .102.043.19.132.246l.002.002.003.001c.118.067.263.121.431.164Zm.742-2.655.002.001.002.001a.99.99 0 0 1 .231.167v.748c-.08.075-.157.132-.233.172a.583.583 0 0 1-.27.06.567.567 0 0 1-.424-.154c-.098-.098-.155-.243-.155-.452 0-.209.057-.354.155-.452.1-.1.237-.155.423-.155.104 0 .192.023.27.064Z" fill="#fff"/><path d="M31.85 26.39a.342.342 0 0 1-.248-.104.342.342 0 0 1-.104-.247v-.024c0-.096.037-.18.104-.248a.342.342 0 0 1 .247-.104h.041c.096 0 .18.037.248.104a.342.342 0 0 1 .104.248v.024c0 .096-.037.18-.104.247a.342.342 0 0 1-.247.105h-.042ZM32.671 26.286a.342.342 0 0 0 .248.105h.04c.096 0 .18-.037.248-.105a.342.342 0 0 0 .104-.247v-.024a.342.342 0 0 0-.104-.248.342.342 0 0 0-.247-.104h-.041a.342.342 0 0 0-.248.104.342.342 0 0 0-.104.248v.024c0 .096.037.18.104.247ZM33.987 26.39a.342.342 0 0 1-.247-.104.342.342 0 0 1-.104-.247v-.024c0-.096.037-.18.104-.248a.341.341 0 0 1 .247-.104h.042c.095 0 .18.037.247.104a.341.341 0 0 1 .104.248v.024c0 .096-.037.18-.104.247a.342.342 0 0 1-.247.105h-.042Z" fill="#fff"/></svg>