<svg width="33" height="33" viewBox="0 0 33 33" fill="none" xmlns="http://www.w3.org/2000/svg">
<path d="M25.5 13H8.5C7.94772 13 7.5 13.4477 7.5 14V24C7.5 24.5523 7.94772 25 8.5 25H25.5C26.0523 25 26.5 24.5523 26.5 24V14C26.5 13.4477 26.0523 13 25.5 13Z" stroke="#333333" stroke-width="2" stroke-linecap="round" stroke-linejoin="round"/>
<path d="M9 10H25" stroke="#333333" stroke-width="2" stroke-linecap="round" stroke-linejoin="round"/>
<path d="M12.5 7H21.5" stroke="#333333" stroke-width="2" stroke-linecap="round" stroke-linejoin="round"/>
<path d="M18 16V19" stroke="#333333" stroke-width="2" stroke-linecap="round" stroke-linejoin="round"/>
<path d="M14 20.3745C14 19.6154 14.6447 19 15.44 19H18V20.6255C18 21.3846 17.3553 22 16.56 22H15.44C14.6447 22 14 21.3846 14 20.6255V20.3745Z" stroke="#333333" stroke-width="2" stroke-linejoin="round"/>
<path d="M20.5 16.5L18 16" stroke="#333333" stroke-width="2" stroke-linecap="round" stroke-linejoin="round"/>
</svg>
