<svg width="33" height="33" viewBox="0 0 33 33" fill="none" xmlns="http://www.w3.org/2000/svg">
<g clip-path="url(#clip0)">
<path d="M28.6665 4H4.6665V28H28.6665V4Z" fill="white" fill-opacity="0.01"/>
<g clip-path="url(#clip1)">
</g>
<rect x="5.6665" y="5" width="22" height="22" rx="11" stroke="black" stroke-width="2"/>
<path d="M16.6509 22.0312C15.3384 22.0312 14.1405 21.651 13.0571 20.8906C12.8488 20.7448 12.7342 20.5417 12.7134 20.2812C12.703 20.25 12.6978 20.224 12.6978 20.2031C12.6978 19.974 12.7759 19.7708 12.9321 19.5938L13.104 19.3906C13.2603 19.1927 13.4686 19.0833 13.729 19.0625C13.7603 19.0625 13.7967 19.0625 13.8384 19.0625C14.0467 19.0625 14.2446 19.1198 14.4321 19.2344C15.1925 19.7344 15.953 19.9844 16.7134 19.9844C17.3175 19.9844 17.7811 19.8646 18.104 19.625C18.4269 19.3854 18.5884 19.0521 18.5884 18.625C18.5884 18.2396 18.4634 17.9531 18.2134 17.7656C17.9634 17.5677 17.5363 17.3385 16.9321 17.0781C16.88 17.0573 16.8436 17.0417 16.8228 17.0312L15.229 16.3594C14.5415 16.0677 13.9686 15.6615 13.5103 15.1406C13.0623 14.6198 12.8384 13.9635 12.8384 13.1719C12.8384 12.1927 13.2238 11.3802 13.9946 10.7344C14.7655 10.0781 15.7446 9.75 16.9321 9.75C18.0363 9.75 19.0363 10.0573 19.9321 10.6719C20.1509 10.8177 20.2707 11.026 20.2915 11.2969C20.2915 11.3177 20.2915 11.3438 20.2915 11.375C20.2915 11.6042 20.2134 11.8073 20.0571 11.9844L20.0259 12.0312C19.8696 12.2292 19.6613 12.3438 19.4009 12.375C19.3488 12.3854 19.2967 12.3906 19.2446 12.3906C19.0467 12.3906 18.8592 12.3385 18.6821 12.2344C18.1405 11.9323 17.5571 11.7812 16.9321 11.7812C16.4113 11.7812 15.9946 11.8906 15.6821 12.1094C15.3696 12.3281 15.2134 12.6354 15.2134 13.0312C15.2134 13.2292 15.255 13.401 15.3384 13.5469C15.4217 13.6927 15.5571 13.8281 15.7446 13.9531C15.9425 14.0781 16.1144 14.1771 16.2603 14.25C16.4165 14.3229 16.6509 14.4167 16.9634 14.5312C17.0155 14.5521 17.0519 14.5677 17.0728 14.5781L18.6196 15.2344C19.4009 15.5573 19.9946 15.974 20.4009 16.4844C20.8071 16.9844 21.0103 17.6406 21.0103 18.4531C21.0103 19.4635 20.6144 20.3125 19.8228 21C19.0415 21.6875 17.9842 22.0312 16.6509 22.0312Z" fill="black"/>
</g>
<defs>
<clipPath id="clip0">
<rect width="24" height="24" fill="white" transform="translate(4.6665 4)"/>
</clipPath>
<clipPath id="clip1">
</clipPath>
</defs>
</svg>
