<svg width="33" height="33" viewBox="0 0 33 33" fill="none" xmlns="http://www.w3.org/2000/svg">
<path d="M29 4H5V28H29V4Z" fill="white" fill-opacity="0.01"/>
<path d="M29 4H5V28H29V4Z" fill="white" fill-opacity="0.01"/>
<path d="M13 16C15.7614 16 18 13.7614 18 11C18 8.23857 15.7614 6 13 6C10.2386 6 8 8.23857 8 11C8 13.7614 10.2386 16 13 16Z" stroke="#333333" stroke-width="2" stroke-linejoin="round"/>
<path d="M18 11.6011C18.0072 11.6082 20.3615 14.5689 25.0628 20.4829C25.2281 20.6816 25.2148 20.9735 25.032 21.1563L22.9903 23.198C22.8075 23.3808 22.5156 23.3941 22.3169 23.2288L13.9111 16.0001" stroke="#333333" stroke-width="2" stroke-linecap="round" stroke-linejoin="round"/>
<path d="M18.235 16.2351L19.6492 17.6493" stroke="#333333" stroke-width="2" stroke-linecap="round" stroke-linejoin="round"/>
<path d="M13.5 26.0431C14.4583 24.794 15.6234 24.1694 16.9953 24.1694C19.0532 24.1694 21.4815 26.7548 23.5532 26.3989C25.6248 26.0431 26.2178 23.9999 24.9426 22.8687" stroke="#333333" stroke-width="2" stroke-linecap="round" stroke-linejoin="round"/>
</svg>
