<svg width="750" height="500" viewBox="0 0 750 500" fill="none" xmlns="http://www.w3.org/2000/svg">
<path d="M649.39 236.09C637.69 201.33 604.53 173.48 567.87 172.73C520.93 171.73 478.87 211.84 432.37 205.39C405.47 201.66 383.15 182.78 365.42 162.22C347.69 141.66 332.7 118.45 311.93 101C273 68.22 215 60.21 168.67 81.17C122.34 102.13 90.0601 151 89.0001 201.85C87.9401 252.7 97.9401 311.39 141.66 345.07L163.77 361.27C208.415 394.038 261.013 414.267 316.11 419.86C339.63 422.23 359.83 426.66 383 427.26C439.2 428.71 496.76 431.14 548.33 408.77C581.97 394.18 613.03 371.77 633.09 341.12C653.15 310.47 661.1 270.84 649.39 236.09Z" fill="#F5F5F5"/>
<path d="M681.26 468.78C681.26 468.93 544.13 469.05 375.01 469.05C205.89 469.05 68.7402 468.93 68.7402 468.78C68.7402 468.63 205.84 468.52 375.01 468.52C544.18 468.52 681.26 468.64 681.26 468.78Z" fill="#263238"/>
<path d="M553.32 351.61C554.32 351.4 562.48 388.77 561.41 403.3C560.34 417.83 553.32 468.35 553.32 468.35H519.68L513.61 396.86L514.76 468.35H469.55C469.55 468.35 459.08 419.22 460.95 404.35C462.82 389.48 472.76 350.35 472.76 350.35L553.32 351.61Z" fill="#263238"/>
<path d="M517 360.22C517.066 360.68 517.09 361.145 517.07 361.61C517.07 362.51 517.07 363.81 517.07 365.42C517 368.64 516.79 373.08 516.38 377.97C515.97 382.86 515.38 387.27 514.95 390.45C514.72 392.04 514.51 393.33 514.35 394.21C514.289 394.674 514.189 395.133 514.05 395.58C514.034 395.111 514.068 394.642 514.15 394.18C514.26 393.18 514.41 391.92 514.59 390.4C514.96 387.21 515.45 382.8 515.86 377.92C516.27 373.04 516.54 368.61 516.7 365.41C516.79 363.88 516.85 362.6 516.91 361.61C516.892 361.145 516.922 360.679 517 360.22V360.22Z" fill="#455A64"/>
<path d="M523.07 363.24C523.07 363.24 523.34 363.14 523.82 363.24C524.5 363.366 525.116 363.719 525.57 364.24C525.883 364.615 526.109 365.056 526.23 365.53C526.358 366.089 526.316 366.674 526.11 367.21C525.873 367.817 525.462 368.341 524.928 368.714C524.394 369.088 523.762 369.295 523.11 369.31C522.453 369.278 521.822 369.048 521.299 368.65C520.776 368.252 520.386 367.704 520.18 367.08C519.992 366.539 519.971 365.953 520.12 365.4C520.256 364.927 520.511 364.497 520.86 364.15C521.341 363.633 522.005 363.325 522.71 363.29C522.963 363.256 523.221 363.309 523.44 363.44C523.44 363.44 523.17 363.44 522.73 363.44C522.105 363.543 521.538 363.866 521.13 364.35C520.821 364.682 520.61 365.094 520.521 365.539C520.433 365.984 520.471 366.445 520.63 366.87C520.816 367.392 521.151 367.847 521.593 368.18C522.036 368.512 522.567 368.707 523.12 368.74C523.671 368.724 524.206 368.55 524.66 368.238C525.114 367.926 525.468 367.489 525.68 366.98C525.849 366.558 525.903 366.098 525.836 365.649C525.769 365.199 525.584 364.775 525.3 364.42C524.918 363.912 524.392 363.532 523.79 363.33C523.34 363.28 523.07 363.28 523.07 363.24Z" fill="#455A64"/>
<path d="M558.33 369.51C558.056 369.666 557.759 369.777 557.45 369.84C556.624 370.077 555.776 370.234 554.92 370.31C552.068 370.575 549.198 370.064 546.612 368.832C544.026 367.6 541.821 365.692 540.23 363.31C539.752 362.613 539.34 361.873 539 361.1C538.85 360.819 538.749 360.515 538.7 360.2C538.79 360.2 539.28 361.41 540.54 363.13C542.167 365.382 544.336 367.187 546.846 368.378C549.357 369.568 552.127 370.106 554.9 369.94C557 369.83 558.31 369.41 558.33 369.51Z" fill="#455A64"/>
<path d="M481.41 190.31C478.86 199.59 475 207.04 471.24 210.77C467.48 214.5 463.45 218.87 463.59 224.17C463.64 226.25 464.33 228.46 463.42 230.33C462.24 232.76 459.1 233.33 456.74 234.61C455.035 235.666 453.645 237.16 452.714 238.937C451.783 240.713 451.347 242.707 451.45 244.71C451.733 248.747 453.517 252.532 456.45 255.32C459.38 258.27 464.02 260.32 467.66 258.32C469.85 257.1 471.1 254.73 472.21 252.48C477.944 240.82 483.13 228.913 487.77 216.76" fill="#263238"/>
<path d="M504.87 150.57C508.123 146.964 512.396 144.434 517.121 143.315C521.847 142.197 526.801 142.543 531.325 144.308C535.849 146.073 539.728 149.173 542.448 153.196C545.168 157.219 546.598 161.974 546.55 166.83C546.48 173.04 544.05 179.56 546.55 185.26C548.28 189.26 552.3 192.35 552.85 196.72C553.5 201.78 549.17 206.37 549.39 211.46C549.54 214.79 551.63 217.73 554.03 220.03C556.43 222.33 559.22 224.25 561.42 226.74C567.53 233.69 567.92 244.67 563.3 252.68C558.68 260.69 549.75 265.73 540.56 266.82C531.37 267.91 522 265.38 513.83 261C508.53 258.13 503.55 254.33 500.4 249.19C497.25 244.05 496.17 237.39 498.66 231.9" fill="#263238"/>
<path d="M524.42 228C524.42 228 545.16 234.13 547.18 237.41C549.2 240.69 555.72 279.22 555.72 279.22L543 324.63C543 324.63 553.53 341.58 554 350.15C530.46 365.34 503.9 361.09 476.09 348.92L474.09 304.55L471.45 233.67L488.57 227.67L524.42 228Z" fill="#E0E0E0"/>
<path d="M547.48 333.77C547.227 333.792 546.973 333.792 546.72 333.77L544.54 333.62L536.54 332.98L510.15 330.68L483.76 328.22L475.76 327.42L473.59 327.17C473.337 327.155 473.086 327.114 472.84 327.05C473.093 327.026 473.348 327.026 473.6 327.05L475.78 327.19L483.78 327.83L510.18 330.14L536.57 332.59L544.57 333.4L546.74 333.64C546.99 333.666 547.237 333.709 547.48 333.77V333.77Z" fill="#5C6E9B"/>
<path d="M523.14 283.79C523.14 283.93 514.03 284.05 502.79 284.05C491.55 284.05 482.44 283.93 482.44 283.79C482.44 283.65 491.55 283.53 502.79 283.53C514.03 283.53 523.14 283.64 523.14 283.79Z" fill="#5C6E9B"/>
<path d="M550.53 253.34C549.999 253.44 549.46 253.494 548.92 253.5L544.51 253.75C540.78 253.96 535.64 254.26 529.97 254.7C524.3 255.14 519.17 255.61 515.46 255.98L511.06 256.4C510.524 256.477 509.982 256.507 509.44 256.49C509.965 256.352 510.5 256.255 511.04 256.2C512.04 256.04 513.57 255.84 515.42 255.61C519.12 255.15 524.25 254.61 529.93 254.18C535.61 253.75 540.76 253.49 544.49 253.38C546.36 253.38 547.87 253.3 548.91 253.3C549.45 253.271 549.992 253.284 550.53 253.34V253.34Z" fill="#5C6E9B"/>
<path d="M547.18 237.44L568 293.91L582 266.09L600.26 269.83L589.75 313.68C589.213 317.493 587.506 321.045 584.864 323.847C582.222 326.648 578.775 328.561 575 329.32C571.842 329.969 568.569 329.786 565.503 328.788C562.436 327.791 559.682 326.013 557.51 323.63L551 316.46L547.18 237.44Z" fill="#E0E0E0"/>
<path d="M567.57 329.59C567.471 329.123 567.42 328.647 567.42 328.17C567.35 327.26 567.29 325.94 567.23 324.3C567.12 321.03 567.07 316.51 567.23 311.51C567.39 306.51 567.69 302 567.99 298.75C568.14 297.12 568.28 295.8 568.4 294.89C568.438 294.418 568.515 293.949 568.63 293.49C568.683 293.962 568.683 294.438 568.63 294.91C568.57 295.91 568.49 297.22 568.39 298.77C568.18 302.04 567.93 306.54 567.78 311.53C567.63 316.52 567.62 321.03 567.64 324.29C567.64 325.85 567.64 327.15 567.64 328.17C567.657 328.644 567.634 329.12 567.57 329.59V329.59Z" fill="#5C6E9B"/>
<path d="M594.47 295.13C594.42 295.27 589.3 293.45 583.04 291.07C576.78 288.69 571.74 286.65 571.79 286.52C571.84 286.39 576.96 288.2 583.22 290.58C589.48 292.96 594.52 295 594.47 295.13Z" fill="#5C6E9B"/>
<path d="M604.61 263.37L595.85 269.83L586.12 267.44L588.46 264.86L604.61 263.37Z" fill="#FFBE9D"/>
<path d="M636.28 184.78L565.4 215.49L565.75 236.03L557.73 244.43L584.81 268.63L592.72 259.78L613.79 256.83L636.28 184.78Z" fill="#FAFAFA"/>
<path d="M636.28 184.78C635.66 186.78 627.11 214.49 614.02 256.9V257.05H613.87L592.8 260.05L592.95 259.97L585 268.8L584.83 269L584.64 268.82L570.81 256.47L557.56 244.62L557.36 244.44L557.54 244.25L565.54 235.85L565.47 236.03C565.36 228.92 565.25 222.03 565.14 215.49V215.33L565.29 215.27L636.29 184.78L565.5 215.71L565.64 215.48C565.76 222.05 565.88 228.92 566 236.02V236.13L565.93 236.2L557.93 244.61V244.24L571.19 256.08L585 268.44H584.63L592.55 259.6L592.61 259.53H592.7L613.78 256.6L613.58 256.76C626.92 214.43 635.64 186.79 636.28 184.78Z" fill="#263238"/>
<path d="M607.52 235.09C606.054 236.73 604.135 237.898 602.005 238.448C599.876 238.997 597.631 238.902 595.555 238.176C593.479 237.449 591.665 236.123 590.343 234.366C589.02 232.608 588.249 230.498 588.126 228.302C588.003 226.106 588.534 223.923 589.651 222.029C590.769 220.135 592.423 218.615 594.405 217.661C596.387 216.707 598.607 216.362 600.785 216.67C602.963 216.977 605 217.924 606.64 219.39C608.838 221.355 610.166 224.114 610.331 227.058C610.496 230.002 609.485 232.891 607.52 235.09V235.09Z" fill="#263238"/>
<path d="M636.281 184.78C636.391 184.87 628.181 194.55 617.951 206.4C607.721 218.25 599.341 227.77 599.231 227.68C599.121 227.59 607.331 217.91 617.561 206.06C627.791 194.21 636.171 184.69 636.281 184.78Z" fill="#263238"/>
<path d="M418 429.67C414.508 426.551 412.394 422.177 412.118 417.503C411.843 412.83 413.429 408.237 416.53 404.73L549.74 253.94L576.16 277.56L443 428.2C439.878 431.707 435.492 433.832 430.804 434.108C426.117 434.383 421.512 432.787 418 429.67V429.67Z" fill="#5C6E9B"/>
<path d="M557.273 241.25L547.624 252.046L578.7 279.821L588.349 269.025L557.273 241.25Z" fill="#5C6E9B"/>
<path d="M641.105 184.659L635.188 179.701L630.229 185.618L636.147 190.577L641.105 184.659Z" fill="#5C6E9B"/>
<path d="M684.55 224.77C684.29 225.07 661.68 206.54 634.04 183.38C606.4 160.22 584.2 141.19 584.45 140.89C584.7 140.59 607.32 159.11 634.96 182.28C662.6 205.45 684.8 224.47 684.55 224.77Z" fill="#5C6E9B"/>
<path d="M685.67 225.71C685.379 226.054 684.993 226.305 684.56 226.43C684.128 226.555 683.667 226.549 683.238 226.413C682.809 226.276 682.429 226.016 682.148 225.664C681.866 225.313 681.695 224.886 681.656 224.437C681.617 223.988 681.712 223.538 681.928 223.143C682.145 222.748 682.474 222.426 682.873 222.218C683.273 222.009 683.725 221.924 684.173 221.973C684.621 222.021 685.044 222.201 685.39 222.49C685.62 222.683 685.81 222.919 685.949 223.185C686.088 223.452 686.173 223.743 686.199 224.042C686.225 224.341 686.192 224.642 686.101 224.929C686.01 225.215 685.863 225.481 685.67 225.71Z" fill="#5C6E9B"/>
<path d="M586.2 142.36C585.909 142.708 585.521 142.961 585.086 143.088C584.651 143.216 584.188 143.211 583.756 143.075C583.323 142.939 582.941 142.677 582.657 142.324C582.374 141.97 582.201 141.541 582.162 141.089C582.123 140.637 582.218 140.184 582.437 139.787C582.655 139.39 582.987 139.066 583.389 138.858C583.791 138.649 584.247 138.564 584.697 138.615C585.148 138.665 585.573 138.848 585.92 139.14C586.383 139.531 586.672 140.089 586.725 140.692C586.777 141.296 586.588 141.895 586.2 142.36V142.36Z" fill="#5C6E9B"/>
<path opacity="0.3" d="M549.74 253.94L576.16 277.56L572.6 281.59L548.47 255.38L549.74 253.94Z" fill="black"/>
<path opacity="0.5" d="M565.79 248.87V267.77L569.64 271.72V252.3L565.79 248.87Z" fill="white"/>
<path d="M597.501 240.05L607.201 243.92L609.281 251.74L604.611 263.37L587.471 265.87L592.471 260.74L591.821 256.27C591.821 256.27 587.041 254.77 586.921 254.04C586.801 253.31 587.511 250.85 588.251 250.73C588.991 250.61 594.001 252.48 594.001 252.48C594.001 252.48 588.061 247.78 588.231 247.03C588.401 246.28 589.031 244.34 590.231 244.13C591.431 243.92 601.001 248.43 601.001 248.43L602.551 251.98L603.911 246.31C603.911 246.31 595.401 243.92 597.501 240.05Z" fill="#FFBE9D"/>
<path d="M596.28 258.37C596.34 258.37 596.52 258.04 596.61 257.37C596.712 256.542 596.613 255.701 596.32 254.92C596.032 254.138 595.563 253.435 594.95 252.87C594.47 252.45 594.1 252.3 594.07 252.35C594.795 253.171 595.395 254.094 595.85 255.09C596.158 256.155 596.303 257.261 596.28 258.37V258.37Z" fill="#EB996E"/>
<path d="M600.891 256.68C600.713 255.842 600.586 254.994 600.511 254.14C600.468 253.183 600.303 252.235 600.021 251.32C599.829 250.765 599.526 250.254 599.131 249.82C598.673 249.383 598.132 249.043 597.541 248.82C595.221 247.98 593.131 247.3 591.601 246.82C590.793 246.504 589.955 246.273 589.101 246.13C589.864 246.537 590.665 246.872 591.491 247.13C592.981 247.71 595.081 248.45 597.351 249.28C597.879 249.469 598.363 249.765 598.771 250.15C599.13 250.53 599.409 250.979 599.591 251.47C599.88 252.346 600.068 253.252 600.151 254.17C600.182 255.056 600.436 255.919 600.891 256.68V256.68Z" fill="#EB996E"/>
<path d="M603.121 254.93C603.254 254.294 603.229 253.635 603.051 253.01C602.881 252.01 602.631 251.16 602.501 251.18C602.371 251.2 602.391 252.06 602.561 253.1C602.731 254.14 603.001 255 603.121 254.93Z" fill="#EB996E"/>
<path d="M530.35 324.22C530.35 324.22 545.9 318.88 546.27 318.71C546.64 318.54 557.27 313.59 556.35 310.71C556.35 310.71 559.35 308.32 558.44 306.98L554.18 308.77C554.18 308.77 560.18 304.86 559.18 301.35C559.18 301.35 559.81 300.16 559.18 299.42C558.55 298.68 555.42 300.91 553.1 302.31L548.62 304.11C546.665 304.897 544.503 305.003 542.48 304.41V304.41C542.016 304.26 541.622 303.946 541.374 303.526C541.125 303.106 541.038 302.609 541.13 302.13C541.98 298.669 541.87 295.042 540.81 291.64C540.81 291.64 539.7 292.03 538.94 294.43C537.94 297.5 534.94 299.87 533.76 301.89C533.12 303.05 532.09 304.89 531.34 306.27C531.028 306.828 530.607 307.319 530.102 307.712C529.597 308.105 529.018 308.394 528.4 308.56L529.47 316.66L530.35 324.22Z" fill="#FFBE9D"/>
<path d="M547.21 309.55C547.397 309.521 547.579 309.464 547.75 309.38C548.09 309.26 548.58 309.06 549.17 308.8C550.711 308.111 552.196 307.302 553.61 306.38C555.02 305.461 556.357 304.435 557.61 303.31C558.09 302.87 558.47 302.51 558.72 302.25C558.857 302.119 558.98 301.975 559.09 301.82C558.928 301.916 558.78 302.034 558.65 302.17L557.49 303.17C556.215 304.246 554.88 305.248 553.49 306.17C552.077 307.075 550.615 307.899 549.11 308.64L547.73 309.29C547.545 309.351 547.37 309.439 547.21 309.55Z" fill="#EB996E"/>
<path d="M547.48 312.65C547.878 312.573 548.264 312.445 548.63 312.27C549.525 311.896 550.391 311.454 551.22 310.95C552.046 310.448 552.844 309.9 553.61 309.31C553.948 309.085 554.257 308.82 554.53 308.52C554.53 308.46 553.01 309.52 551.08 310.73C550.08 311.31 549.22 311.73 548.55 312.1C548.178 312.251 547.82 312.435 547.48 312.65V312.65Z" fill="#EB996E"/>
<path d="M547.35 316.37C547.853 316.23 548.342 316.042 548.81 315.81C549.956 315.285 551.065 314.683 552.13 314.01C553.194 313.337 554.216 312.599 555.19 311.8C555.612 311.487 556 311.132 556.35 310.74C555.906 311.014 555.482 311.318 555.08 311.65C554.31 312.23 553.23 313.01 551.99 313.79C550.935 314.461 549.847 315.079 548.73 315.64C548.253 315.85 547.792 316.094 547.35 316.37V316.37Z" fill="#EB996E"/>
<path d="M530.35 324.22L472.63 341.58C466.121 338.633 460.689 333.735 457.087 327.565C453.484 321.395 451.888 314.257 452.52 307.14C454.34 286.74 456.74 259.91 457.45 253.14C458.63 241.91 471.51 233.64 471.51 233.64C489.21 234.79 485.29 269.8 485.29 269.8L478.16 310.07L528.35 308.07L530.35 324.22Z" fill="#E0E0E0"/>
<path d="M478.16 310.1C478.141 309.562 478.165 309.024 478.23 308.49C478.3 307.49 478.47 305.97 478.68 304.12C479.13 300.45 479.91 295.39 480.95 289.83C481.99 284.27 483.02 279.26 483.84 275.65C484.24 273.84 484.59 272.38 484.84 271.38C484.938 270.85 485.089 270.33 485.29 269.83C485.246 270.365 485.162 270.897 485.04 271.42C484.82 272.53 484.54 273.98 484.2 275.72C483.48 279.35 482.49 284.37 481.46 289.92C480.43 295.47 479.59 300.52 479.04 304.17C478.8 305.94 478.59 307.4 478.43 308.51C478.388 309.047 478.297 309.579 478.16 310.1V310.1Z" fill="#263238"/>
<path d="M528.35 308.09C528.175 308.143 527.993 308.17 527.81 308.17L526.24 308.31C524.87 308.41 522.9 308.53 520.46 308.66C515.58 308.91 508.83 309.14 501.38 309.36L482.3 309.9L476.52 310.09H474.95C474.768 310.118 474.583 310.118 474.4 310.09C474.575 310.037 474.757 310.01 474.94 310.01L476.51 309.87C477.88 309.77 479.85 309.64 482.29 309.52C487.17 309.27 493.92 309.04 501.37 308.82L520.44 308.28L526.23 308.09H527.8C527.983 308.062 528.168 308.062 528.35 308.09V308.09Z" fill="#263238"/>
<path d="M480.35 294.83C479.998 294.877 479.642 294.877 479.29 294.83L476.41 294.61C473.98 294.43 470.63 294.19 466.92 294.04C463.21 293.89 459.86 293.83 457.42 293.82H454.54C454.185 293.839 453.829 293.815 453.48 293.75C453.806 293.664 454.142 293.62 454.48 293.62C455.16 293.56 456.15 293.52 457.37 293.48C459.81 293.4 463.18 293.39 466.9 293.55C470.62 293.71 473.97 293.99 476.4 294.28C477.61 294.41 478.58 294.55 479.26 294.65C479.629 294.668 479.995 294.729 480.35 294.83V294.83Z" fill="#5C6E9B"/>
<path d="M485.29 267.05C485.29 267.19 478.74 267.05 470.68 266.69C462.62 266.33 456.09 265.97 456.1 265.82C456.11 265.67 462.64 265.82 470.7 266.17C478.76 266.52 485.29 266.9 485.29 267.05Z" fill="#5C6E9B"/>
<path d="M457.93 328.28C458.074 327.951 458.259 327.642 458.48 327.36C458.87 326.78 459.48 325.97 460.22 324.99C462.227 322.454 464.434 320.083 466.82 317.9C469.211 315.72 471.776 313.74 474.49 311.98C475.49 311.31 476.39 310.79 477 310.47C477.31 310.268 477.647 310.11 478 310C478 310.07 476.74 310.87 474.72 312.29C469.442 315.957 464.674 320.308 460.54 325.23C458.92 327.11 458 328.33 457.93 328.28Z" fill="#5C6E9B"/>
<path d="M499.34 333.77C499.2 333.77 498.23 328.38 497.17 321.67C496.11 314.96 495.37 309.5 495.51 309.48C495.65 309.46 496.63 314.88 497.69 321.59C498.75 328.3 499.49 333.75 499.34 333.77Z" fill="#5C6E9B"/>
<g opacity="0.3">
<path opacity="0.3" d="M472.28 341.58L536.92 322C532.08 328.38 522.64 334.32 515.52 338C508.4 341.68 500.79 344.26 493.21 346.84C489.09 348.24 484.87 349.66 480.52 349.62C476.17 349.58 471.92 348.33 469.63 344.62L472.28 341.58Z" fill="black"/>
</g>
<path d="M483.42 175.41C483.996 173.985 484.075 172.407 483.643 170.932C483.211 169.456 482.294 168.17 481.04 167.28C479.748 166.446 478.227 166.039 476.691 166.116C475.155 166.193 473.682 166.751 472.48 167.71C471.315 168.709 470.462 170.021 470.023 171.491C469.583 172.961 469.575 174.526 470 176C470.535 177.769 471.656 179.302 473.178 180.35C474.7 181.397 476.533 181.895 478.376 181.763C480.219 181.63 481.962 180.874 483.318 179.62C484.675 178.366 485.564 176.687 485.84 174.86" fill="#263238"/>
<path d="M493.08 158.53V163.25L492.08 233.96C491.96 242.17 498.93 248.81 507.72 248.86C516.59 248.92 523.99 242.25 524.25 233.96C524.51 225.26 524.95 216.1 524.95 216.1C524.95 216.1 536.21 214.55 538.95 199.99C540.31 192.75 540.27 180.81 539.95 170.99C539.878 168.906 539.385 166.858 538.501 164.97C537.616 163.082 536.359 161.392 534.804 160.003C533.25 158.614 531.43 157.553 529.454 156.886C527.479 156.219 525.389 155.958 523.31 156.12L493.08 158.53Z" fill="#FFBE9D"/>
<path d="M534.93 179.56C534.922 180.049 534.723 180.516 534.376 180.86C534.028 181.203 533.559 181.398 533.07 181.4C532.831 181.412 532.591 181.376 532.365 181.294C532.14 181.212 531.933 181.086 531.757 180.923C531.58 180.76 531.439 180.563 531.34 180.345C531.241 180.126 531.187 179.89 531.18 179.65C531.193 179.163 531.394 178.699 531.74 178.356C532.087 178.013 532.553 177.818 533.04 177.81C533.28 177.797 533.52 177.832 533.747 177.913C533.973 177.994 534.18 178.121 534.357 178.284C534.533 178.447 534.675 178.644 534.773 178.864C534.872 179.083 534.925 179.32 534.93 179.56V179.56Z" fill="#263238"/>
<path d="M537.13 177.18C536.89 177.42 535.49 176.32 533.48 176.27C531.47 176.22 529.95 177.19 529.74 176.94C529.53 176.69 529.88 176.39 530.54 175.94C531.43 175.361 532.478 175.071 533.54 175.11C534.588 175.131 535.602 175.481 536.44 176.11C537.05 176.62 537.24 177.07 537.13 177.18Z" fill="#263238"/>
<path d="M515.18 179.36C515.17 179.849 514.97 180.315 514.623 180.66C514.277 181.005 513.809 181.202 513.32 181.21C513.081 181.222 512.841 181.186 512.615 181.104C512.39 181.022 512.183 180.896 512.007 180.733C511.83 180.57 511.689 180.373 511.59 180.155C511.491 179.936 511.437 179.7 511.43 179.46C511.438 178.971 511.637 178.504 511.985 178.161C512.333 177.817 512.801 177.623 513.29 177.62C513.529 177.608 513.768 177.644 513.993 177.725C514.218 177.806 514.424 177.931 514.6 178.093C514.776 178.255 514.918 178.451 515.018 178.668C515.117 178.886 515.173 179.121 515.18 179.36V179.36Z" fill="#263238"/>
<path d="M517.27 177C517.03 177.23 515.64 176.14 513.62 176.09C511.6 176.04 510.1 177.01 509.88 176.76C509.66 176.51 510.03 176.21 510.69 175.76C511.579 175.177 512.627 174.884 513.69 174.92C514.738 174.941 515.752 175.291 516.59 175.92C517.19 176.45 517.39 176.9 517.27 177Z" fill="#263238"/>
<path d="M524.19 192.18C525.26 191.871 526.366 191.703 527.48 191.68C528 191.68 528.48 191.55 528.59 191.2C528.648 190.667 528.539 190.129 528.28 189.66L526.87 185.66C524.87 180.01 523.5 175.37 523.73 175.29C523.96 175.21 525.73 179.73 527.73 185.38C528.21 186.77 528.66 188.1 529.09 189.38C529.384 190.004 529.458 190.709 529.3 191.38C529.219 191.559 529.099 191.718 528.949 191.844C528.798 191.971 528.621 192.061 528.43 192.11C528.142 192.179 527.847 192.213 527.55 192.21C526.433 192.34 525.305 192.33 524.19 192.18Z" fill="#263238"/>
<path d="M524.92 216.1C518.031 216.02 511.301 214.025 505.48 210.34C505.48 210.34 509.95 220.52 524.63 219.55L524.92 216.1Z" fill="#EB996E"/>
<path d="M523.2 197C522.829 196.507 522.339 196.116 521.776 195.864C521.213 195.612 520.595 195.507 519.98 195.56C519.533 195.588 519.096 195.706 518.695 195.907C518.295 196.108 517.939 196.388 517.65 196.73C517.371 197.059 517.2 197.465 517.159 197.894C517.117 198.323 517.209 198.754 517.42 199.13C517.735 199.501 518.154 199.769 518.622 199.901C519.091 200.032 519.588 200.022 520.05 199.87C521.012 199.558 521.902 199.058 522.67 198.4C522.903 198.244 523.106 198.047 523.27 197.82C523.346 197.71 523.387 197.579 523.387 197.445C523.387 197.311 523.346 197.18 523.27 197.07" fill="#EB996E"/>
<path d="M518.21 193.41C518.54 193.41 518.48 195.59 520.31 197.2C522.14 198.81 524.48 198.63 524.49 198.94C524.49 199.07 523.96 199.35 522.97 199.35C521.687 199.326 520.453 198.855 519.48 198.02C518.547 197.215 517.965 196.078 517.86 194.85C517.8 193.93 518.06 193.39 518.21 193.41Z" fill="#263238"/>
<path d="M518 169.11C517.79 169.65 515.78 169.34 513.4 169.56C511.02 169.78 509.09 170.37 508.79 169.87C508.66 169.63 509.01 169.12 509.79 168.61C510.837 167.975 512.019 167.598 513.24 167.51C514.454 167.402 515.677 167.58 516.81 168.03C517.68 168.41 518.11 168.85 518 169.11Z" fill="#263238"/>
<path d="M536.55 171.31C536.18 171.76 534.8 171.25 533.13 171.18C531.46 171.11 530.03 171.4 529.72 170.91C529.58 170.68 529.82 170.22 530.45 169.81C531.295 169.31 532.269 169.073 533.249 169.13C534.229 169.187 535.17 169.535 535.95 170.13C536.53 170.62 536.71 171.1 536.55 171.31Z" fill="#263238"/>
<path d="M511.48 153.89C515.39 159.09 511.32 166.45 506.82 171.14C502.32 175.83 496.82 181.28 498.05 187.66C499.48 195.07 509.6 199.81 508.1 207.2C507.55 209.89 505.42 212.2 505.41 214.94C505.41 219.94 511.82 222.32 513.67 226.94C516.21 233.26 509.24 239.56 509.13 246.37C509.07 250.23 511.26 253.84 511.38 257.7C511.62 265.61 502.26 271.41 494.58 269.46C486.9 267.51 481.65 260 480 252.27C478.35 244.54 480.87 233.65 482.11 225.83L468.81 228.92C466.33 226.55 469.72 224.04 470.28 220.67C471.68 212.2 477.28 205.03 479.89 196.87C482.2 189.74 482.22 182.1 483.23 174.67C484.24 167.24 486.54 159.5 492.23 154.59C497.92 149.68 507.73 149.09 512.32 155.02" fill="#263238"/>
<path d="M481.66 177.92C483.598 178.227 485.567 178.288 487.52 178.1C492.221 177.427 496.633 175.429 500.24 172.34C503.798 169.198 506.923 165.596 509.53 161.63C510.53 160.18 511.35 158.97 511.97 158.05C512.249 157.599 512.563 157.171 512.91 156.77C512.696 157.256 512.438 157.721 512.14 158.16C511.62 159.04 510.84 160.3 509.84 161.83C507.297 165.898 504.174 169.574 500.57 172.74C496.899 175.892 492.374 177.883 487.57 178.46C486.117 178.608 484.65 178.558 483.21 178.31C482.822 178.248 482.438 178.165 482.06 178.06C481.79 178 481.65 177.94 481.66 177.92Z" fill="#455A64"/>
<path d="M499 179.88C498.38 180.494 497.66 180.998 496.87 181.37C495.001 182.379 492.971 183.056 490.87 183.37C488.779 183.674 486.65 183.61 484.58 183.18C483.718 183.046 482.884 182.773 482.11 182.37C482.11 182.28 483.11 182.58 484.65 182.82C488.736 183.455 492.919 182.842 496.65 181.06C498.12 180.36 498.94 179.81 499 179.88Z" fill="#455A64"/>
<path d="M546.54 170.05C544.938 170.071 543.362 169.65 541.984 168.833C540.606 168.016 539.48 166.835 538.73 165.42C539.792 166.544 540.972 167.549 542.25 168.42C543.616 169.118 545.055 169.665 546.54 170.05V170.05Z" fill="#455A64"/>
<path d="M545.6 175C544.695 175.281 543.729 175.308 542.809 175.079C541.889 174.85 541.049 174.373 540.38 173.7C540.47 173.58 541.5 174.23 542.93 174.57C544.36 174.91 545.58 174.82 545.6 175Z" fill="#455A64"/>
<path d="M482.76 181.1C482.251 179.54 482.107 177.884 482.34 176.26C482.402 174.619 482.833 173.012 483.6 171.56C483.75 171.61 483.08 173.67 482.86 176.3C482.64 178.93 482.91 181.08 482.76 181.1Z" fill="#5C6E9B"/>
<path d="M344.53 349.94C343.53 349.72 335.47 387.64 336.53 402.39C337.59 417.14 344.53 468.39 344.53 468.39H427.46C427.46 468.39 437.83 418.54 435.98 403.44C434.13 388.34 424.28 348.64 424.28 348.64L344.53 349.94Z" fill="#263238"/>
<path d="M333.93 278.25L322.08 224.9L321.39 216.06C321.39 216.06 318.68 196.26 318.66 194.33C318.66 192.09 317.56 191.56 316.73 191.63C315.45 191.73 314.56 193.32 314.51 195.24C314.51 195.9 314.7 206.38 314.7 206.38C314.078 205.397 313.39 204.458 312.64 203.57C311.07 201.63 307.42 200.57 303.64 200.71C299.86 200.85 298.88 201.24 298.87 202.71C298.883 202.984 298.957 203.252 299.087 203.495C299.217 203.737 299.399 203.947 299.62 204.11C300.313 204.68 301.193 204.972 302.09 204.93C308.09 204.76 309.72 207.93 309.72 207.93L309.81 209.08C309.81 209.08 306.14 206.52 303.26 207.65C302.834 207.819 302.444 208.067 302.11 208.38C301.297 208.394 300.502 208.619 299.802 209.033C299.102 209.448 298.522 210.037 298.119 210.742C297.716 211.448 297.503 212.247 297.501 213.06C297.499 213.873 297.709 214.673 298.11 215.38C298.277 215.738 298.547 216.038 298.885 216.243C299.224 216.448 299.615 216.548 300.01 216.53C300.41 216.402 300.771 216.175 301.06 215.87C301.226 215.723 301.403 215.59 301.59 215.47L302.29 218.68C302.29 218.68 304.29 225.78 304.76 228.97L308 281.88C308.105 283.621 308.555 285.324 309.325 286.889C310.095 288.455 311.169 289.851 312.485 290.997C313.8 292.143 315.33 293.015 316.986 293.563C318.642 294.112 320.391 294.325 322.13 294.19V294.19C324.004 294.044 325.826 293.498 327.471 292.587C329.116 291.676 330.547 290.423 331.666 288.912C332.785 287.4 333.566 285.666 333.956 283.827C334.347 281.988 334.338 280.086 333.93 278.25V278.25Z" fill="#FFBE9D"/>
<path d="M320.35 224.19C319.787 224.28 319.209 224.189 318.701 223.93C318.192 223.671 317.779 223.258 317.52 222.75C316.91 221.75 316.65 220.64 316.12 219.64C314.53 216.64 310.74 215.22 309.3 212.14C309.1 211.71 308.98 211.14 309.36 210.83C309.74 210.52 310.21 210.76 310.59 210.97L320.52 216.33" fill="#FFBE9D"/>
<path d="M320.52 216.33C320.222 216.053 319.885 215.821 319.52 215.64C318.85 215.23 317.86 214.64 316.64 213.97L312.33 211.57L311.08 210.88C310.616 210.524 310.03 210.366 309.45 210.44C309.27 210.501 309.112 210.614 308.998 210.766C308.884 210.918 308.818 211.1 308.81 211.29C308.795 211.603 308.853 211.914 308.98 212.2C309.216 212.705 309.508 213.181 309.85 213.62C311.23 215.38 313.01 216.47 314.3 217.75C314.924 218.333 315.457 219.008 315.88 219.75C316.27 220.44 316.51 221.18 316.8 221.83C316.987 222.379 317.292 222.881 317.693 223.3C318.093 223.72 318.58 224.048 319.12 224.26C319.93 224.5 320.38 224.26 320.36 224.2C319.966 224.217 319.572 224.16 319.2 224.03C318.72 223.794 318.294 223.46 317.95 223.05C317.606 222.641 317.35 222.164 317.2 221.65C316.948 220.919 316.657 220.201 316.33 219.5C315.9 218.699 315.346 217.97 314.69 217.34C313.37 215.99 311.61 214.87 310.34 213.23C310.029 212.835 309.764 212.405 309.55 211.95C309.36 211.53 309.38 211.09 309.63 211.04C309.88 210.99 310.35 211.2 310.77 211.43L312.03 212.1L316.4 214.38C317.65 215.02 318.67 215.53 319.4 215.87C319.751 216.073 320.128 216.228 320.52 216.33V216.33Z" fill="#EB996E"/>
<path d="M310 209.14C309.925 208.427 309.681 207.741 309.29 207.14C308.834 206.521 308.193 206.062 307.46 205.83C306.538 205.561 305.58 205.436 304.62 205.46C303.615 205.485 302.61 205.408 301.62 205.23C300.802 205.072 300.041 204.703 299.41 204.16C299.195 203.967 299.028 203.726 298.922 203.457C298.816 203.188 298.774 202.898 298.8 202.61C298.809 202.392 298.878 202.181 299 202C299 202 299 202.21 299 202.58C299.005 202.834 299.066 203.084 299.179 203.312C299.291 203.54 299.452 203.741 299.65 203.9C300.26 204.374 300.978 204.69 301.74 204.82C302.696 204.966 303.663 205.026 304.63 205C305.63 204.978 306.627 205.124 307.58 205.43C308.397 205.689 309.102 206.218 309.58 206.93C309.877 207.404 310.055 207.942 310.1 208.5C310.07 208.93 310 209.14 310 209.14Z" fill="#EB996E"/>
<path d="M314.54 194.5C314.621 195.19 314.641 195.886 314.6 196.58V201.58C314.6 203.46 314.6 205.16 314.67 206.58C314.735 207.272 314.735 207.968 314.67 208.66C314.505 207.985 314.415 207.294 314.4 206.6C314.3 205.31 314.22 203.53 314.2 201.6C314.18 199.67 314.2 197.86 314.32 196.6C314.316 195.894 314.389 195.19 314.54 194.5V194.5Z" fill="#EB996E"/>
<path d="M307.65 211.52C307.437 211.47 307.232 211.393 307.04 211.29C306.79 211.169 306.518 211.101 306.241 211.091C305.964 211.08 305.688 211.128 305.43 211.23C305.27 211.315 305.137 211.442 305.043 211.597C304.95 211.752 304.9 211.929 304.9 212.11C304.881 212.563 304.918 213.016 305.01 213.46C305.139 214.02 305.057 214.607 304.78 215.11C304.599 215.364 304.361 215.573 304.085 215.719C303.809 215.865 303.502 215.944 303.19 215.95C302.884 215.953 302.581 215.893 302.299 215.774C302.017 215.655 301.762 215.481 301.55 215.26C301.148 214.866 300.873 214.361 300.76 213.81C300.629 212.922 300.629 212.019 300.76 211.13C300.831 210.529 301.003 209.944 301.27 209.4C301.48 209.02 301.68 208.87 301.69 208.89C301.7 208.91 301.57 209.09 301.42 209.47C301.215 210.016 301.09 210.588 301.05 211.17C300.961 212.026 300.984 212.89 301.12 213.74C301.217 214.223 301.471 214.661 301.841 214.986C302.211 215.311 302.678 215.506 303.17 215.54C303.417 215.535 303.659 215.472 303.877 215.358C304.096 215.243 304.285 215.08 304.43 214.88C304.654 214.461 304.722 213.975 304.62 213.51C304.537 213.031 304.513 212.544 304.55 212.06C304.566 211.829 304.643 211.607 304.773 211.415C304.903 211.224 305.081 211.07 305.29 210.97C305.584 210.855 305.902 210.811 306.217 210.842C306.531 210.874 306.834 210.979 307.1 211.15C307.48 211.35 307.67 211.5 307.65 211.52Z" fill="#EB996E"/>
<path d="M301.72 214.94C301.72 214.94 301.8 215.16 301.66 215.53C301.56 215.794 301.4 216.03 301.191 216.22C300.982 216.409 300.732 216.546 300.46 216.62C300.05 216.715 299.623 216.703 299.22 216.584C298.817 216.464 298.452 216.243 298.16 215.94C297.469 215.192 297.09 214.208 297.1 213.19C297.091 212.189 297.395 211.21 297.97 210.39C298.439 209.726 299.078 209.201 299.82 208.87C300.31 208.641 300.84 208.509 301.38 208.48C301.578 208.45 301.78 208.467 301.97 208.53C301.279 208.637 300.606 208.839 299.97 209.13C299.3 209.474 298.726 209.979 298.3 210.6C297.794 211.368 297.53 212.27 297.54 213.19C297.526 214.101 297.85 214.984 298.45 215.67C298.698 215.943 299.012 216.148 299.362 216.266C299.713 216.383 300.087 216.409 300.45 216.34C300.688 216.282 300.912 216.174 301.107 216.025C301.301 215.875 301.463 215.686 301.58 215.47C301.68 215.15 301.68 214.94 301.72 214.94Z" fill="#EB996E"/>
<path d="M309 221.86C309.327 221.767 309.673 221.767 310 221.86C310.854 222.032 311.626 222.486 312.19 223.15L311.84 223.26C311.883 222.789 311.956 222.321 312.06 221.86C312.346 220.231 313.077 218.712 314.17 217.47C313.445 218.899 312.872 220.401 312.46 221.95C312.36 222.42 312.29 222.88 312.24 223.3L312.18 223.77L311.89 223.41C311.37 222.782 310.673 222.326 309.89 222.1C309.589 222.038 309.292 221.958 309 221.86V221.86Z" fill="#EB996E"/>
<path d="M308.61 204C308.71 204 308.32 204.8 307.4 205.2C306.48 205.6 305.66 205.41 305.69 205.3C305.72 205.19 306.44 205.19 307.23 204.82C308.02 204.45 308.52 204 308.61 204Z" fill="#EB996E"/>
<path d="M429 232.94C433.34 232.94 443.77 245.27 445.59 264C446.42 272.58 450.72 307.71 452.8 324.6C453.165 327.591 452.721 330.626 451.514 333.387C450.308 336.148 448.383 338.536 445.94 340.3C434.71 348.45 412.24 361.3 382.34 360.92L364.2 345.73L423 321V319.66L425.56 316.85L418.22 271.85C418.22 271.85 411.4 232.94 429 232.94Z" fill="#5C6E9B"/>
<path d="M413.67 153.79C413.89 159.88 422 163.56 421.9 169.65C421.9 172.27 420.23 174.65 419.9 177.21C419.47 180.69 421.42 183.98 422.14 187.42C423.63 194.51 419.51 201.98 413.4 205.86C407.29 209.74 399.61 210.48 392.4 209.49" fill="#263238"/>
<path d="M364.68 152.3C364.92 155.57 362.76 158.48 360.59 160.93C358.42 163.38 355.99 165.93 355.52 169.18C354.69 174.93 360.32 180.26 359.16 185.95C358.53 189 356.04 191.45 355.59 194.53C355.14 197.61 356.76 200.42 358.74 202.69C360.72 204.96 363.01 204.62 364.74 207.07C366.772 209.825 369.357 212.124 372.33 213.82C378.64 217.27 386.2 212.28 389.24 211.38" fill="#263238"/>
<path d="M414.89 157.29C414.97 154.29 412.23 152.04 409.47 150.96C406.71 149.88 403.65 149.46 401.19 147.81C399.01 146.34 397.55 144.06 395.71 142.19C393.437 139.877 390.589 138.211 387.459 137.365C384.329 136.519 381.03 136.522 377.902 137.374C374.773 138.227 371.929 139.898 369.661 142.216C367.393 144.534 365.784 147.414 365 150.56C363.94 154.78 364.66 159.77 368 162.56C371.86 165.82 377.58 165.09 382.52 164.08C387.46 163.07 393.07 162.08 397.2 164.98C399.69 166.73 401.12 169.58 402.64 172.21C404.16 174.84 406.07 177.54 408.95 178.53C411.83 179.52 415.74 177.81 415.85 174.77" fill="#263238"/>
<path d="M375.5 226.31C375.5 219.51 375.42 212.88 375.42 212.92C375.42 212.96 364.62 211.1 362.42 197C361.33 190 361.7 178.5 362.32 169.1C362.87 160.65 368.49 150.29 376.92 151.2L403.21 157.9C404.435 158.041 405.565 158.629 406.382 159.552C407.2 160.475 407.648 161.667 407.64 162.9V162.9L405.23 226.74C405.084 230.634 403.414 234.315 400.58 236.989C397.747 239.664 393.976 241.119 390.08 241.04C386.21 240.967 382.521 239.387 379.798 236.636C377.075 233.885 375.533 230.181 375.5 226.31V226.31Z" fill="#FFBE9D"/>
<path d="M366.78 177.16C366.777 177.631 366.956 178.085 367.281 178.426C367.605 178.767 368.049 178.969 368.52 178.99C368.75 179.009 368.982 178.982 369.202 178.91C369.422 178.837 369.625 178.722 369.799 178.57C369.973 178.418 370.116 178.233 370.217 178.025C370.318 177.817 370.377 177.591 370.39 177.36C370.393 176.889 370.213 176.435 369.889 176.094C369.564 175.753 369.12 175.551 368.65 175.53C368.42 175.512 368.188 175.541 367.969 175.613C367.75 175.686 367.547 175.802 367.373 175.953C367.199 176.105 367.057 176.29 366.955 176.497C366.853 176.704 366.794 176.93 366.78 177.16V177.16Z" fill="#263238"/>
<path d="M364.79 175.09C365.01 175.32 366.38 174.31 368.33 174.32C370.28 174.33 371.7 175.32 371.91 175.07C372.12 174.82 371.78 174.54 371.16 174.07C370.324 173.479 369.324 173.164 368.3 173.17C367.287 173.168 366.3 173.486 365.48 174.08C364.88 174.56 364.68 175 364.79 175.09Z" fill="#263238"/>
<path d="M385.67 177.65C385.665 178.121 385.844 178.575 386.169 178.915C386.494 179.255 386.94 179.454 387.41 179.47C387.64 179.489 387.871 179.462 388.09 179.391C388.309 179.319 388.512 179.204 388.686 179.054C388.86 178.903 389.002 178.718 389.104 178.512C389.206 178.305 389.266 178.08 389.28 177.85C389.283 177.379 389.103 176.925 388.779 176.584C388.455 176.243 388.01 176.041 387.54 176.02C387.31 176.001 387.078 176.028 386.858 176.1C386.638 176.173 386.435 176.288 386.261 176.44C386.086 176.592 385.944 176.777 385.843 176.985C385.741 177.193 385.683 177.419 385.67 177.65V177.65Z" fill="#263238"/>
<path d="M383.91 175.49C384.13 175.73 385.5 174.72 387.45 174.73C389.4 174.74 390.82 175.73 391.03 175.48C391.24 175.23 390.91 174.94 390.28 174.48C389.44 173.898 388.442 173.587 387.42 173.59C386.408 173.585 385.421 173.9 384.6 174.49C384 175 383.8 175.39 383.91 175.49Z" fill="#263238"/>
<path d="M376.82 189.9C375.794 189.579 374.733 189.387 373.66 189.33C373.16 189.27 372.66 189.17 372.61 188.84C372.566 188.325 372.681 187.808 372.94 187.36L374.42 183.58C376.47 178.2 377.96 173.78 377.74 173.7C377.52 173.62 375.68 177.91 373.63 183.29L372.22 187.1C371.931 187.689 371.853 188.36 372 189C372.071 189.177 372.182 189.335 372.324 189.462C372.466 189.588 372.636 189.68 372.82 189.73C373.093 189.809 373.376 189.849 373.66 189.85C374.707 189.998 375.768 190.015 376.82 189.9V189.9Z" fill="#263238"/>
<path d="M375.42 212.92C382.058 213.032 388.596 211.301 394.31 207.92C394.15 207.92 389.11 217.71 375.6 216.24L375.42 212.92Z" fill="#EB996E"/>
<path d="M382.54 191.26C382.22 191.26 382.21 193.35 380.4 194.85C378.59 196.35 376.34 196.11 376.33 196.4C376.33 196.53 376.83 196.81 377.78 196.84C379.016 196.859 380.22 196.441 381.18 195.66C382.098 194.912 382.69 193.836 382.83 192.66C382.92 191.77 382.68 191.25 382.54 191.26Z" fill="#263238"/>
<path d="M383 172.09C383.19 172.61 385.13 172.37 387.41 172.65C389.69 172.93 391.54 173.55 391.85 173.08C391.98 172.85 391.66 172.36 390.92 171.84C389.926 171.215 388.804 170.822 387.637 170.69C386.47 170.559 385.288 170.692 384.18 171.08C383.38 171.42 383 171.83 383 172.09Z" fill="#263238"/>
<path d="M365.51 169.46C365.86 169.9 367.2 169.46 368.81 169.46C370.42 169.46 371.81 169.76 372.1 169.3C372.24 169.08 372.02 168.63 371.43 168.21C370.632 167.699 369.697 167.444 368.75 167.48C367.802 167.495 366.882 167.806 366.12 168.37C365.55 168.79 365.36 169.24 365.51 169.46Z" fill="#263238"/>
<path d="M409.17 205.06C405.29 205.84 404.95 203.87 402.05 201.18C400.609 199.817 399.507 198.136 398.831 196.271C398.156 194.406 397.926 192.41 398.16 190.44C398.59 186.97 400.46 183.44 399.26 180.18C397.67 175.84 391.6 174.51 389.99 170.18C389.05 167.67 389.89 164.73 388.83 162.26C387.83 159.95 385.4 158.61 383.03 157.76C380.66 156.91 378.11 156.31 376.12 154.76C374.13 153.21 372.89 150.29 374.17 148.12C384.698 149.382 395.038 151.897 404.97 155.61C407.28 156.47 409.69 157.5 411.05 159.54C412.41 161.58 412.42 164.54 412.3 167.1L410.53 205.1" fill="#263238"/>
<path d="M418 176.3C418.228 173.959 419.213 171.757 420.806 170.026C422.398 168.295 424.511 167.13 426.824 166.708C429.138 166.285 431.526 166.628 433.627 167.684C435.728 168.74 437.428 170.451 438.47 172.56C440.47 176.56 439.75 181.38 437.92 185.43C435.75 190.23 431.3 194.62 426.03 194.38C421.03 194.16 417.08 189.8 415.65 185.05C414.22 180.3 414.8 175.21 415.39 170.28" fill="#263238"/>
<path d="M420.8 195.61C421.103 195.396 421.353 195.116 421.53 194.79C422.087 193.94 422.449 192.977 422.59 191.97C422.787 190.489 422.743 188.987 422.46 187.52C422.17 185.86 421.61 184.12 421.21 182.28C420.756 180.579 420.651 178.803 420.9 177.06C421.19 175.49 421.9 174.16 422.25 172.92C422.565 171.949 422.593 170.907 422.33 169.92C422.261 169.538 422.072 169.188 421.79 168.92C421.74 168.92 421.96 169.28 422.1 169.92C422.255 170.871 422.162 171.846 421.83 172.75C421.246 174.104 420.748 175.493 420.34 176.91C420.041 178.728 420.129 180.589 420.6 182.37C421.02 184.25 421.6 185.98 421.9 187.58C422.207 188.988 422.291 190.436 422.15 191.87C421.989 193.203 421.527 194.482 420.8 195.61V195.61Z" fill="#455A64"/>
<path d="M421 178.68C421.552 179.54 422.29 180.265 423.16 180.8C425.189 182.236 427.603 183.027 430.088 183.07C432.573 183.113 435.013 182.405 437.09 181.04C437.976 180.549 438.742 179.865 439.33 179.04C439.25 178.96 438.45 179.8 436.86 180.71C434.813 181.916 432.472 182.533 430.096 182.49C427.72 182.448 425.403 181.749 423.4 180.47C421.86 179.47 421.08 178.61 421 178.68Z" fill="#455A64"/>
<path d="M421.7 180.89C421.949 181.697 422.353 182.448 422.89 183.1C424.097 184.753 425.624 186.147 427.38 187.2C429.135 188.256 431.083 188.953 433.11 189.25C433.938 189.418 434.791 189.418 435.62 189.25C434.814 189.062 434 188.915 433.18 188.81C431.248 188.396 429.397 187.67 427.7 186.66C426.01 185.641 424.502 184.347 423.24 182.83C422.27 181.67 421.79 180.84 421.7 180.89Z" fill="#455A64"/>
<path d="M418.15 200.33C418.212 200.279 418.266 200.218 418.31 200.15C418.449 199.972 418.576 199.785 418.69 199.59C419.149 198.831 419.464 197.993 419.62 197.12C419.887 195.736 419.812 194.308 419.4 192.96C418.862 191.149 417.7 189.587 416.12 188.55C414.44 187.37 412.27 186.55 410.88 184.67C410.53 184.201 410.282 183.665 410.151 183.095C410.02 182.525 410.01 181.934 410.12 181.36C410.402 180.105 410.811 178.882 411.34 177.71C411.891 176.37 412.16 174.93 412.129 173.481C412.098 172.032 411.768 170.605 411.16 169.29C410.52 167.885 409.537 166.664 408.3 165.74C407.004 164.841 405.531 164.227 403.98 163.94C402.45 163.6 400.93 163.39 399.52 162.94C398.123 162.577 396.837 161.873 395.78 160.89C394.839 159.878 394.269 158.577 394.16 157.2C394.028 155.82 393.805 154.45 393.49 153.1C392.869 150.566 391.553 148.256 389.69 146.43C388.046 144.836 385.951 143.789 383.69 143.43C381.832 143.127 379.926 143.413 378.24 144.25C376.984 144.897 375.906 145.841 375.1 147C374.592 147.724 374.22 148.534 374 149.39C373.915 149.686 373.868 149.992 373.86 150.3C374.13 149.163 374.619 148.09 375.3 147.14C376.115 146.049 377.182 145.171 378.41 144.58C380.034 143.808 381.859 143.564 383.63 143.88C385.781 144.248 387.77 145.263 389.33 146.79C391.101 148.565 392.35 150.793 392.94 153.23C393.237 154.548 393.447 155.884 393.57 157.23C393.709 158.722 394.334 160.128 395.35 161.23C396.476 162.292 397.852 163.052 399.35 163.44C400.83 163.89 402.35 164.09 403.85 164.44C405.318 164.709 406.715 165.281 407.95 166.12C409.105 166.985 410.023 168.127 410.62 169.44C411.199 170.68 411.516 172.026 411.55 173.394C411.585 174.762 411.336 176.123 410.82 177.39C410.282 178.605 409.87 179.871 409.59 181.17C409.476 181.815 409.497 182.476 409.65 183.113C409.803 183.749 410.086 184.347 410.48 184.87C412.02 186.87 414.26 187.68 415.88 188.8C417.404 189.765 418.538 191.239 419.08 192.96C419.498 194.25 419.607 195.62 419.4 196.96C419.202 198.153 418.778 199.297 418.15 200.33Z" fill="#455A64"/>
<path d="M417.21 161C417.314 160.799 417.372 160.577 417.38 160.35C417.433 159.692 417.268 159.035 416.91 158.48C416.36 157.591 415.535 156.906 414.56 156.53C413.248 156.112 411.846 156.067 410.51 156.4C409.03 156.68 407.51 157.27 405.82 157.59C404.962 157.83 404.063 157.882 403.183 157.744C402.303 157.606 401.463 157.281 400.72 156.79C399.23 155.65 398.48 153.68 397.72 151.72C396.945 149.624 395.845 147.663 394.46 145.91C391.771 142.486 388.016 140.058 383.79 139.01C381.931 138.581 379.993 138.633 378.16 139.16C376.548 139.621 375.103 140.538 374 141.8C373.208 142.712 372.686 143.827 372.492 145.019C372.298 146.211 372.439 147.434 372.9 148.55C373.141 149.153 373.502 149.7 373.96 150.16C374.112 150.328 374.287 150.472 374.48 150.59C373.904 149.966 373.443 149.245 373.12 148.46C372.781 147.537 372.665 146.547 372.78 145.57C372.916 144.273 373.459 143.051 374.33 142.08C375.385 140.905 376.751 140.052 378.27 139.62C380.021 139.142 381.865 139.114 383.63 139.54C387.711 140.586 391.333 142.952 393.93 146.27C395.281 147.97 396.354 149.874 397.11 151.91C397.89 153.91 398.66 155.91 400.35 157.22C401.166 157.804 402.128 158.15 403.13 158.22C404.054 158.295 404.984 158.231 405.89 158.03C407.63 157.66 409.14 157.03 410.57 156.76C411.825 156.407 413.154 156.407 414.41 156.76C415.334 157.087 416.129 157.7 416.68 158.51C417.032 159.023 417.223 159.628 417.23 160.25C417.26 160.74 417.17 161 417.21 161Z" fill="#455A64"/>
<path d="M430.21 233.14L405.21 226.78H375.41C375.41 226.78 359.96 227.67 351.41 235.26C349.252 237.402 347.643 240.033 346.72 242.93L333.48 273.24L326.68 235.24L302.9 238.62L306.7 304C307.377 310.782 310.192 317.173 314.74 322.25C319.288 327.326 325.333 330.825 332 332.24L345.55 317C347.12 329.41 348.5 340.05 348.64 339.91C348.97 339.58 422.72 335.11 422.72 335.11L415.25 309.87L430.21 233.14Z" fill="#5C6E9B"/>
<path d="M335.71 148.5C335.741 145.447 334.953 142.442 333.426 139.798C331.899 137.155 329.691 134.969 327.031 133.471C324.372 131.972 321.358 131.215 318.306 131.278C315.254 131.342 312.275 132.224 309.68 133.832C307.085 135.44 304.969 137.715 303.554 140.42C302.138 143.125 301.475 146.16 301.634 149.209C301.792 152.258 302.766 155.208 304.454 157.752C306.142 160.296 308.482 162.34 311.23 163.67C311.23 165.67 311.23 167.97 311.23 167.97L326.17 168.13C326.17 168.13 326.29 165.71 326.34 163.56C329.137 162.155 331.491 160.006 333.145 157.349C334.798 154.692 335.686 151.63 335.71 148.5Z" fill="#5C6E9B"/>
<path d="M320.73 168C320.726 167.93 320.726 167.86 320.73 167.79L320.8 167.18C320.88 166.64 320.98 165.84 321.14 164.82C321.3 163.8 321.52 162.55 321.86 161.12C322.238 159.495 322.774 157.911 323.46 156.39C323.858 155.507 324.333 154.66 324.88 153.86C325.186 153.435 325.591 153.092 326.06 152.86C326.316 152.743 326.597 152.688 326.878 152.7C327.16 152.712 327.435 152.791 327.68 152.93C327.939 153.085 328.129 153.332 328.212 153.621C328.296 153.911 328.266 154.221 328.13 154.49C327.838 155.013 327.365 155.411 326.8 155.61C325.628 155.984 324.355 155.88 323.26 155.32C322.69 155.027 322.185 154.622 321.776 154.129C321.367 153.636 321.062 153.064 320.88 152.45C320.667 151.804 320.64 151.111 320.8 150.45C320.885 150.105 321.087 149.8 321.371 149.587C321.656 149.373 322.005 149.265 322.36 149.28C322.544 149.302 322.72 149.369 322.872 149.475C323.024 149.582 323.147 149.724 323.23 149.89C323.389 150.219 323.432 150.593 323.35 150.95C323.134 151.623 322.71 152.211 322.14 152.63C321.587 153.083 320.946 153.416 320.257 153.607C319.568 153.798 318.847 153.843 318.14 153.74C317.434 153.621 316.768 153.332 316.198 152.898C315.628 152.464 315.173 151.899 314.87 151.25C314.713 150.93 314.624 150.581 314.607 150.225C314.589 149.869 314.645 149.514 314.77 149.18C314.838 149.01 314.941 148.855 315.072 148.726C315.203 148.597 315.359 148.496 315.53 148.43C315.703 148.373 315.886 148.353 316.067 148.372C316.248 148.391 316.423 148.448 316.58 148.54C316.889 148.715 317.136 148.98 317.29 149.3C317.443 149.612 317.529 149.953 317.54 150.3C317.579 150.962 317.483 151.625 317.26 152.25C316.838 153.467 315.97 154.479 314.83 155.08C313.744 155.646 312.493 155.805 311.3 155.53C310.712 155.432 310.173 155.14 309.77 154.7C309.573 154.476 309.458 154.192 309.444 153.894C309.429 153.596 309.516 153.302 309.69 153.06C309.888 152.841 310.165 152.708 310.46 152.69C310.741 152.668 311.022 152.727 311.27 152.86C311.724 153.132 312.076 153.547 312.27 154.04C312.69 154.97 313.03 155.87 313.37 156.73C314.7 160.18 315.63 163.02 316.26 164.99C316.57 165.99 316.8 166.74 316.96 167.27L317.13 167.86C317.151 167.925 317.168 167.992 317.18 168.06C317.152 167.998 317.129 167.935 317.11 167.87C317.06 167.73 317 167.53 316.92 167.28C316.75 166.75 316.5 165.99 316.18 165.02C315.53 163.02 314.57 160.22 313.23 156.78C312.89 155.93 312.54 155.02 312.13 154.11C311.928 153.642 311.576 153.255 311.13 153.01C311.026 152.925 310.907 152.862 310.779 152.823C310.65 152.785 310.516 152.772 310.382 152.785C310.249 152.799 310.12 152.838 310.002 152.902C309.884 152.965 309.78 153.051 309.695 153.155C309.61 153.259 309.547 153.378 309.508 153.506C309.47 153.635 309.457 153.769 309.47 153.903C309.484 154.036 309.523 154.165 309.587 154.283C309.65 154.401 309.736 154.505 309.84 154.59C310.221 154.993 310.723 155.26 311.27 155.35C312.419 155.614 313.626 155.458 314.67 154.91C315.765 154.328 316.597 153.352 317 152.18C317.214 151.585 317.306 150.952 317.27 150.32C317.273 150.005 317.195 149.695 317.045 149.418C316.894 149.142 316.676 148.908 316.41 148.74C316.279 148.662 316.132 148.613 315.98 148.598C315.828 148.582 315.674 148.6 315.53 148.65C315.385 148.704 315.253 148.788 315.143 148.897C315.032 149.005 314.946 149.136 314.89 149.28C314.775 149.587 314.725 149.914 314.742 150.24C314.759 150.567 314.844 150.887 314.99 151.18C315.277 151.798 315.711 152.336 316.252 152.749C316.794 153.162 317.428 153.437 318.1 153.55C318.775 153.652 319.465 153.611 320.123 153.428C320.782 153.245 321.394 152.926 321.92 152.49C322.458 152.1 322.861 151.551 323.07 150.92C323.145 150.613 323.106 150.29 322.96 150.01C322.897 149.873 322.799 149.755 322.676 149.667C322.553 149.58 322.41 149.526 322.26 149.51C322.108 149.495 321.955 149.51 321.809 149.555C321.663 149.599 321.527 149.672 321.41 149.77C321.172 149.967 321.001 150.232 320.92 150.53C320.768 151.141 320.792 151.782 320.99 152.38C321.166 152.969 321.459 153.517 321.85 153.991C322.242 154.465 322.725 154.856 323.27 155.14C324.319 155.678 325.537 155.778 326.66 155.42C327.179 155.249 327.616 154.893 327.89 154.42C328.01 154.192 328.038 153.927 327.967 153.679C327.896 153.431 327.733 153.22 327.51 153.09C327.29 152.963 327.042 152.891 326.788 152.879C326.535 152.866 326.281 152.915 326.05 153.02C325.601 153.257 325.216 153.6 324.93 154.02C324.385 154.814 323.91 155.654 323.51 156.53C322.82 158.038 322.278 159.608 321.89 161.22C321.54 162.64 321.32 163.89 321.14 164.9C320.96 165.91 320.85 166.71 320.77 167.25C320.77 167.51 320.69 167.72 320.67 167.86C320.692 167.906 320.712 167.952 320.73 168V168Z" fill="#263238"/>
<path d="M325 170.88L312.17 170.75C311.913 170.737 311.672 170.626 311.495 170.44C311.318 170.254 311.219 170.007 311.22 169.75V169.75C311.22 169.485 311.325 169.23 311.513 169.043C311.7 168.855 311.955 168.75 312.22 168.75L325 169C325.265 169 325.519 169.105 325.707 169.293C325.894 169.48 326 169.735 326 170C325.97 170.244 325.852 170.468 325.668 170.631C325.483 170.793 325.245 170.882 325 170.88Z" fill="#263238"/>
<path d="M324.94 171.72L312.12 171.59C311.971 171.547 311.814 171.538 311.661 171.566C311.508 171.594 311.364 171.657 311.24 171.75C311.116 171.843 311.015 171.964 310.945 172.103C310.876 172.242 310.84 172.395 310.84 172.55C310.84 172.705 310.876 172.858 310.945 172.997C311.015 173.136 311.116 173.257 311.24 173.35C311.364 173.443 311.508 173.506 311.661 173.534C311.814 173.562 311.971 173.554 312.12 173.51H313.53L315.36 177.08C315.463 177.281 315.619 177.451 315.811 177.571C316.003 177.691 316.224 177.756 316.45 177.76L321.04 177.81C321.267 177.812 321.491 177.75 321.685 177.632C321.88 177.514 322.037 177.343 322.14 177.14L324 173.62H324.95C325.098 173.66 325.254 173.666 325.405 173.636C325.555 173.607 325.697 173.543 325.819 173.449C325.942 173.356 326.04 173.236 326.109 173.098C326.177 172.96 326.212 172.809 326.212 172.655C326.212 172.501 326.177 172.35 326.109 172.212C326.04 172.074 325.942 171.954 325.819 171.861C325.697 171.767 325.555 171.703 325.405 171.674C325.254 171.644 325.098 171.65 324.95 171.69L324.94 171.72Z" fill="#263238"/>
<g opacity="0.2">
<path opacity="0.2" d="M307.82 137.34C308.84 136.417 310.001 135.664 311.26 135.11C312.095 134.733 312.981 134.483 313.89 134.37C314.54 134.31 314.89 134.37 314.94 134.52C315.01 134.83 313.71 135.27 311.94 136.42C309.648 137.833 307.812 139.877 306.652 142.307C305.492 144.737 305.057 147.449 305.4 150.12C305.62 152.2 306.09 153.49 305.8 153.63C305.68 153.69 305.39 153.45 305.03 152.91C304.565 152.129 304.218 151.283 304 150.4C303.636 149.072 303.49 147.694 303.57 146.32C303.665 144.616 304.086 142.946 304.81 141.4" fill="white"/>
</g>
<g opacity="0.2">
<path opacity="0.2" d="M319 135.29C317.92 135.29 317 134.97 316.86 134.39C316.86 134.11 317.02 133.81 317.41 133.58C317.907 133.314 318.466 133.183 319.03 133.2C319.596 133.195 320.152 133.344 320.64 133.63C321.02 133.87 321.22 134.18 321.16 134.46" fill="white"/>
</g>
<path d="M321.87 177.47C321.87 177.47 321.54 177.35 320.99 177.19C320.287 176.975 319.555 176.873 318.82 176.89C318.085 176.904 317.356 177.032 316.66 177.27C316.12 177.45 315.81 177.61 315.79 177.58C316.034 177.381 316.312 177.229 316.61 177.13C317.312 176.844 318.062 176.691 318.82 176.68C319.56 176.656 320.298 176.764 321 177C321.316 177.103 321.611 177.262 321.87 177.47V177.47Z" fill="#455A64"/>
<path d="M324 173.68C324 173.74 321.68 173.76 318.82 173.68C315.96 173.6 313.64 173.58 313.64 173.52C313.64 173.46 315.96 173.44 318.83 173.52C321.7 173.6 324 173.62 324 173.68Z" fill="#455A64"/>
<path d="M323.18 175.2C322.76 175.267 322.335 175.303 321.91 175.31C321.13 175.31 320.05 175.39 318.85 175.39C317.65 175.39 316.57 175.39 315.79 175.33C315.365 175.335 314.939 175.302 314.52 175.23C314.943 175.196 315.367 175.196 315.79 175.23H318.85H321.91C322.332 175.186 322.757 175.176 323.18 175.2Z" fill="#455A64"/>
<path d="M348.34 291C348.046 290.728 347.794 290.415 347.59 290.07C346.988 289.148 346.539 288.135 346.26 287.07C345.433 283.554 345.652 279.873 346.89 276.48C348.23 272.48 349.98 269.17 350.96 266.64C351.46 265.38 351.83 264.34 352.06 263.64C352.151 263.256 352.285 262.884 352.46 262.53C352.439 262.927 352.372 263.319 352.26 263.7C352.08 264.44 351.76 265.5 351.26 266.79C350.36 269.37 348.66 272.79 347.34 276.66C346.142 279.971 345.875 283.548 346.57 287C346.969 288.41 347.565 289.756 348.34 291V291Z" fill="#263238"/>
<path d="M417.4 265.17C417.475 265.331 417.522 265.503 417.54 265.68C417.62 266.08 417.72 266.57 417.85 267.17C418.1 268.55 418.44 270.41 418.85 272.68C419.68 277.34 420.79 283.78 421.95 290.91C423.11 298.04 424.1 304.5 424.74 309.19C425.06 311.53 425.29 313.43 425.44 314.75C425.49 315.36 425.53 315.86 425.57 316.27C425.592 316.446 425.592 316.624 425.57 316.8C425.503 316.634 425.462 316.459 425.45 316.28C425.39 315.88 425.32 315.38 425.22 314.78C425.01 313.39 424.72 311.52 424.36 309.24C423.6 304.5 422.57 298.09 421.42 290.99C420.27 283.89 419.24 277.48 418.48 272.75C418.13 270.46 417.84 268.59 417.63 267.21C417.54 266.6 417.47 266.1 417.42 265.7C417.391 265.525 417.384 265.347 417.4 265.17V265.17Z" fill="#263238"/>
<path d="M332.79 292C332.779 291.07 332.836 290.141 332.96 289.22C333.11 287.5 333.28 285.14 333.35 282.52C333.42 279.9 333.35 277.52 333.35 275.81C333.275 274.882 333.275 273.949 333.35 273.02C333.583 273.926 333.713 274.855 333.74 275.79C333.927 278.031 333.991 280.282 333.93 282.53C333.873 284.782 333.692 287.028 333.39 289.26C333.294 290.193 333.093 291.112 332.79 292Z" fill="#263238"/>
<path d="M434.41 323.44C434.33 323.44 434.18 322.78 433.7 321.81C433.095 320.538 432.188 319.433 431.06 318.59C429.916 317.761 428.594 317.213 427.2 316.99C426.13 316.83 425.44 316.88 425.43 316.8C426.012 316.589 426.638 316.53 427.25 316.63C428.735 316.748 430.157 317.279 431.357 318.163C432.557 319.046 433.486 320.247 434.04 321.63C434.319 322.191 434.447 322.815 434.41 323.44Z" fill="#263238"/>
<path d="M428.92 326.39C428.147 325.235 427.277 324.148 426.32 323.14C425.243 322.26 424.088 321.481 422.87 320.81C424.289 321.105 425.602 321.78 426.667 322.762C427.733 323.745 428.511 324.999 428.92 326.39V326.39Z" fill="#263238"/>
<path d="M410.5 326.41C410.45 326.27 413.29 325.11 416.74 323.58C420.19 322.05 422.96 320.73 423.03 320.86C421.123 322.14 419.085 323.213 416.95 324.06C414.886 325.062 412.724 325.849 410.5 326.41Z" fill="#263238"/>
<path d="M313.25 284.25C313.25 284.25 327.61 352.64 327.61 351.74C327.61 350.84 400.07 354.85 413.04 355.42L415.74 354.76L436.2 335.93L412.67 334L404.25 285.87L313.25 284.25Z" fill="#E0E0E0"/>
<path d="M404.25 285.91C404.39 285.91 407.08 301.29 410.25 320.3C413.42 339.31 415.88 354.74 415.74 354.76C415.6 354.78 412.91 339.4 409.74 320.38C406.57 301.36 404.11 285.94 404.25 285.91Z" fill="#455A64"/>
<path d="M404.51 286C404.51 286 404.36 286.2 404 286.51C403.465 286.944 402.963 287.419 402.5 287.93C402.25 288.27 401.91 288.72 402.09 289.2C402.27 289.68 402.3 290.34 402.43 290.97C402.65 292.24 402.9 293.68 403.18 295.27C404.27 301.69 405.77 310.48 407.42 320.18C409.07 329.88 410.42 338.69 411.5 345.12C411.99 348.27 412.39 350.84 412.68 352.69C412.8 353.54 412.9 354.22 412.98 354.75C413.027 354.987 413.047 355.229 413.04 355.47C412.969 355.237 412.913 355 412.87 354.76C412.77 354.253 412.64 353.587 412.48 352.76C412.15 350.92 411.7 348.36 411.14 345.22C410.05 338.79 408.55 330.01 406.9 320.3C405.25 310.59 403.9 301.8 402.82 295.37C402.57 293.78 402.34 292.37 402.14 291.06C402.03 290.43 401.97 289.82 401.85 289.3C401.804 289.035 401.825 288.763 401.91 288.508C401.996 288.253 402.144 288.024 402.34 287.84C402.829 287.338 403.361 286.88 403.93 286.47C404.114 286.302 404.308 286.145 404.51 286V286Z" fill="#455A64"/>
<path d="M401.86 288.44C401.564 288.464 401.266 288.464 400.97 288.44H398.41L389 288.31L357.94 287.77L326.88 287.25L317.47 287.1L314.91 287.05C314.606 287.06 314.301 287.043 314 287C314 287 314.31 287 314.89 286.95H317.45C319.68 286.95 322.89 286.95 326.87 286.95C334.82 286.95 345.8 287.1 357.93 287.31C370.06 287.52 381.04 287.79 388.99 288.01L398.4 288.31L400.95 288.42C401.253 288.409 401.557 288.415 401.86 288.44V288.44Z" fill="#455A64"/>
<path d="M412.61 336C413.072 335.963 413.537 335.963 414 336L417.8 336.15C421.02 336.3 425.48 336.54 430.47 336.85H431.11L430.62 337.27C430.33 337.52 430.02 337.79 429.7 338.05C425.7 341.47 422.03 344.53 419.36 346.73L416.19 349.32C415.819 349.658 415.413 349.956 414.98 350.21C415.311 349.847 415.672 349.512 416.06 349.21L419.12 346.49C421.73 344.22 425.35 341.11 429.36 337.7C429.68 337.43 429.99 337.16 430.29 336.92L430.44 337.37C425.44 337.06 420.99 336.76 417.78 336.52L413.99 336.2C413.524 336.183 413.061 336.116 412.61 336V336Z" fill="#455A64"/>
<path d="M349.56 353.84L348.63 342.71C349.137 342.631 349.656 342.666 350.148 342.812C350.641 342.957 351.095 343.211 351.477 343.553C351.86 343.896 352.162 344.319 352.361 344.792C352.56 345.265 352.652 345.777 352.63 346.29V339.39C352.63 339.39 356.87 338.46 357.8 344.03C358.227 346.965 358.982 349.843 360.05 352.61L362.31 353.84L360.17 341C360.17 341 364.67 341.4 365.47 345.64C365.916 348.102 366.586 350.519 367.47 352.86L374.59 354.86C374.59 354.86 370.51 351.21 370.9 350.02C371.29 348.83 371.04 348.9 371.83 348.73C373.163 348.721 374.474 349.066 375.63 349.73C376.93 350.42 384.43 354.86 384.43 354.86V360.36C384.43 360.36 366.97 361.62 363.03 360.88L355.39 359.12C354.05 358.807 352.812 358.158 351.792 357.234C350.772 356.31 350.004 355.142 349.56 353.84Z" fill="#FFBE9D"/>
<path d="M366.24 317.26C366.291 318.193 366.07 319.121 365.606 319.931C365.141 320.742 364.451 321.401 363.62 321.828C362.789 322.255 361.852 322.433 360.923 322.34C359.993 322.246 359.11 321.886 358.381 321.301C357.652 320.717 357.107 319.934 356.813 319.047C356.519 318.161 356.488 317.207 356.723 316.303C356.959 315.399 357.451 314.582 358.141 313.952C358.831 313.321 359.688 312.904 360.61 312.75C361.954 312.604 363.301 312.997 364.356 313.842C365.412 314.687 366.089 315.916 366.24 317.26V317.26Z" fill="#FAFAFA"/>
<g opacity="0.4">
<path opacity="0.4" d="M425.52 316.51C428.484 315.5 431.714 315.599 434.61 316.79C436.045 317.4 437.303 318.361 438.269 319.584C439.235 320.807 439.879 322.253 440.14 323.79C440.261 324.502 440.209 325.232 439.99 325.92C439.874 326.261 439.683 326.572 439.43 326.828C439.177 327.084 438.869 327.28 438.53 327.4C437.958 327.502 437.368 327.422 436.844 327.171C436.32 326.92 435.888 326.51 435.61 326C435.082 324.972 434.65 323.898 434.32 322.79C433.578 320.982 432.329 319.427 430.723 318.312C429.117 317.198 427.224 316.572 425.27 316.51L425.75 316.64" fill="black"/>
</g>
<path d="M372.92 230.54C373.51 228.66 372.98 226.64 372.65 224.69C372.32 222.74 372.27 220.52 373.59 219.06C374.91 217.6 377.09 217.43 379.05 217.34L403.25 216.29C404.9 216.22 406.82 216.29 407.85 217.55C408.212 217.952 408.477 218.431 408.624 218.951C408.772 219.471 408.798 220.018 408.7 220.55C407.46 225.16 407.85 229.04 409.7 232.29" fill="#5C6E9B"/>
<path d="M405.71 228.23C405.387 228.562 405.032 228.86 404.65 229.12C403.634 229.855 402.572 230.523 401.47 231.12C397.8 233.111 393.766 234.343 389.61 234.74C387.323 234.98 385.016 234.937 382.74 234.61C380.873 234.347 379.066 233.762 377.4 232.88C376.273 232.287 375.274 231.479 374.46 230.5C374.234 230.239 374.033 229.958 373.86 229.66C373.789 229.563 373.735 229.455 373.7 229.34C374.748 230.675 376.067 231.772 377.57 232.56C379.219 233.368 380.989 233.902 382.81 234.14C385.049 234.427 387.314 234.458 389.56 234.23C393.651 233.818 397.631 232.656 401.3 230.8C404.11 229.38 405.65 228.15 405.71 228.23Z" fill="#263238"/>
<path d="M389.19 234.83C388.893 233.966 388.682 233.075 388.56 232.17C388.24 230.51 387.83 228.17 387.41 225.67C387.2 224.41 387.01 223.21 386.83 222.08C386.627 221.086 386.662 220.058 386.93 219.08C387.149 218.407 387.599 217.833 388.2 217.46C388.412 217.311 388.671 217.24 388.93 217.26C388.93 217.26 388.68 217.36 388.31 217.63C387.82 218.032 387.47 218.578 387.31 219.19C387.095 220.128 387.095 221.102 387.31 222.04C387.5 223.16 387.7 224.36 387.92 225.62C388.34 228.16 388.69 230.46 388.92 232.14C389.093 233.026 389.183 233.927 389.19 234.83V234.83Z" fill="#263238"/>
<path d="M401.77 231C401.534 230.287 401.383 229.549 401.32 228.8C401.1 227.44 400.84 225.55 400.58 223.45C400.32 221.35 400.16 219.45 399.97 218.11C399.891 217.601 399.619 217.143 399.21 216.83C398.91 216.62 398.69 216.6 398.7 216.56C398.71 216.52 398.94 216.47 399.32 216.65C399.574 216.795 399.794 216.992 399.966 217.229C400.138 217.465 400.259 217.734 400.32 218.02C400.63 219.42 400.82 221.29 401.1 223.39C401.38 225.49 401.56 227.39 401.68 228.76C401.795 229.501 401.826 230.252 401.77 231V231Z" fill="#263238"/>
<path d="M378.74 217.36C378.113 217.703 377.56 218.165 377.11 218.72C376.661 219.345 376.357 220.063 376.22 220.82C376.066 221.759 376.039 222.714 376.14 223.66C376.32 225.72 376.5 227.6 376.58 228.96C376.665 229.694 376.665 230.436 376.58 231.17C376.361 230.462 376.227 229.73 376.18 228.99C376 227.64 375.77 225.78 375.58 223.7C375.473 222.699 375.517 221.688 375.71 220.7C375.88 219.881 376.247 219.116 376.78 218.47C377.007 218.155 377.3 217.892 377.638 217.701C377.977 217.509 378.352 217.393 378.74 217.36V217.36Z" fill="#263238"/>
<path d="M280.06 364.75C280.06 369.9 283.06 468.6 283.06 468.6L241.06 468.38L233.72 424.52L231.78 468.38H191.42L195.8 360.05L280.06 364.75Z" fill="#455A64"/>
<path d="M156.24 323.88L134.78 291.88L150.7 278.94L177.63 303.94C177.63 303.94 189.22 238.94 200.63 235.02L199.74 335.82C192.264 339.385 183.754 340.14 175.767 337.947C167.78 335.755 160.849 330.762 156.24 323.88Z" fill="#263238"/>
<path d="M112.3 173.19L116.86 235.49L191.64 378.83L234.87 353.8L161.18 213.71L112.3 173.19Z" fill="#5C6E9B"/>
<g opacity="0.7">
<path opacity="0.7" d="M161.91 214C161.594 214.526 161.172 214.98 160.669 215.333C160.167 215.686 159.597 215.93 158.995 216.049C158.392 216.167 157.772 216.159 157.174 216.023C156.575 215.887 156.012 215.627 155.52 215.26C156.076 217.518 155.91 219.895 155.044 222.054C154.179 224.213 152.657 226.045 150.694 227.294C148.731 228.542 146.426 229.142 144.104 229.011C141.782 228.879 139.559 228.022 137.75 226.56C137.446 228.833 136.547 230.985 135.144 232.798C133.74 234.611 131.882 236.021 129.758 236.884C127.633 237.747 125.319 238.033 123.048 237.712C120.778 237.392 118.632 236.477 116.83 235.06L112.3 173.22L161.91 214Z" fill="white"/>
</g>
<path d="M114.13 198.25C114.13 198.25 124.27 204.61 132.32 189.79L112.32 173.19L114.13 198.25Z" fill="#5C6E9B"/>
<path d="M208.12 367.12C207.99 367.19 192.12 335.81 172.61 297.06C153.1 258.31 137.44 226.81 137.61 226.75C137.78 226.69 153.61 258.05 173.12 296.82C192.63 335.59 208.25 367.06 208.12 367.12Z" fill="white"/>
<path d="M226.09 356.37C225.96 356.43 210.09 325.06 190.59 286.3C171.09 247.54 155.42 216.06 155.54 216C155.66 215.94 171.54 247.31 191.05 286.08C210.56 324.85 226.22 356.3 226.09 356.37Z" fill="white"/>
<path d="M138.17 256.65L128.47 260.53L126.4 268.34L129.74 281.34L137.57 289.65L142.86 285.28L143.19 277.28L143.83 272.81C143.83 272.81 148.61 271.31 148.73 270.58C148.85 269.85 148.14 267.39 147.41 267.28C146.68 267.17 141.66 269.03 141.66 269.03C141.66 269.03 147.59 264.33 147.43 263.57C147.27 262.81 146.62 260.89 145.43 260.67C144.24 260.45 134.67 264.97 134.67 264.97L133.11 268.52L131.75 262.85C131.75 262.85 140.28 260.52 138.17 256.65Z" fill="#B78876"/>
<path d="M139.39 275C139.39 275 139.15 274.66 139.06 274C138.967 273.172 139.069 272.333 139.359 271.551C139.649 270.77 140.119 270.067 140.73 269.5C141.21 269.08 141.57 268.93 141.61 268.98C140.818 269.753 140.209 270.693 139.825 271.73C139.441 272.768 139.292 273.878 139.39 274.98V275Z" fill="#AA6550"/>
<path d="M134.78 273.28C134.966 272.443 135.096 271.594 135.17 270.74C135.207 269.786 135.372 268.841 135.66 267.93C135.845 267.369 136.149 266.854 136.55 266.42C136.999 265.978 137.538 265.637 138.13 265.42C140.45 264.58 142.54 263.9 144.07 263.42C144.882 263.11 145.723 262.878 146.58 262.73C145.816 263.137 145.016 263.472 144.19 263.73C142.7 264.3 140.6 265.05 138.32 265.87C137.789 266.058 137.305 266.358 136.9 266.75C136.539 267.128 136.263 267.578 136.09 268.07C135.797 268.942 135.605 269.844 135.52 270.76C135.496 271.65 135.241 272.518 134.78 273.28V273.28Z" fill="#AA6550"/>
<path d="M132.56 271.53C132.42 271.53 132.45 270.65 132.62 269.62C132.79 268.59 133.04 267.76 133.18 267.79C133.311 268.423 133.287 269.078 133.11 269.7C132.94 270.73 132.69 271.55 132.56 271.53Z" fill="#AA6550"/>
<path d="M263.7 216.37L255.2 213.48L223.42 220.77L220.6 223.11L203.78 378.83C211 386.28 233.78 387.76 246.71 385.56L263.7 216.37Z" fill="#5C6E9B"/>
<path d="M264.29 216.67L260.2 214.67C260.2 214.67 251.2 254.31 251.2 280.5C251.2 306.69 245.54 401.61 245.54 401.61L288.41 400.5V295.59L264.29 216.67Z" fill="#263238"/>
<path d="M203.78 403.14L187.53 398.39L193.2 321.64L192.13 266L200.63 235L220.79 222.54C220.79 222.54 204.89 393.9 203.78 403.14Z" fill="#263238"/>
<path d="M237.66 235.53C233.754 235.182 230.122 233.381 227.481 230.482C224.841 227.584 223.384 223.801 223.4 219.88V205.96C223.4 205.96 210.53 203.96 210.4 191.09C210.27 178.22 212.48 148.7 212.48 148.7C219.79 145.558 227.806 144.424 235.701 145.416C243.596 146.407 251.083 149.488 257.39 154.34L259.3 155.81L254.64 221.06C254.491 223.131 253.932 225.152 252.995 227.005C252.057 228.857 250.761 230.505 249.18 231.852C247.6 233.198 245.768 234.217 243.79 234.849C241.812 235.48 239.728 235.712 237.66 235.53V235.53Z" fill="#B78876"/>
<path d="M223.43 205.77C229.369 205.875 235.205 204.215 240.2 201C240.2 201 236.2 210.25 223.4 209.09L223.43 205.77Z" fill="#AA6550"/>
<path d="M257.74 169.13C257.96 169.04 266.57 166.52 266.29 175.31C266.01 184.1 257.24 182.01 257.23 181.76C257.22 181.51 257.74 169.13 257.74 169.13Z" fill="#B78876"/>
<path d="M260 178.51C260 178.51 260.15 178.62 260.4 178.75C260.578 178.835 260.772 178.884 260.969 178.895C261.166 178.905 261.364 178.876 261.55 178.81C262.49 178.5 263.32 177.05 263.41 175.47C263.456 174.716 263.333 173.961 263.05 173.26C262.976 172.984 262.836 172.73 262.643 172.519C262.45 172.309 262.209 172.148 261.94 172.05C261.765 171.993 261.576 172.001 261.407 172.073C261.238 172.144 261.1 172.275 261.02 172.44C260.89 172.68 260.94 172.86 260.9 172.87C260.86 172.88 260.71 172.72 260.79 172.36C260.849 172.144 260.98 171.953 261.16 171.82C261.281 171.73 261.418 171.666 261.564 171.632C261.71 171.598 261.862 171.594 262.01 171.62C262.371 171.694 262.707 171.86 262.985 172.102C263.264 172.344 263.476 172.653 263.6 173C263.944 173.776 264.098 174.623 264.05 175.47C263.94 177.24 262.98 178.87 261.69 179.2C261.452 179.261 261.204 179.268 260.963 179.219C260.722 179.171 260.496 179.068 260.3 178.92C260 178.73 260 178.53 260 178.51Z" fill="#AA6550"/>
<path d="M216.71 168.49C216.704 168.969 216.886 169.43 217.217 169.776C217.548 170.122 218.001 170.324 218.48 170.34C218.714 170.358 218.949 170.329 219.172 170.254C219.395 170.18 219.6 170.062 219.777 169.908C219.954 169.753 220.098 169.565 220.202 169.354C220.305 169.144 220.366 168.914 220.38 168.68C220.385 168.201 220.203 167.74 219.872 167.394C219.541 167.048 219.088 166.846 218.61 166.83C218.375 166.812 218.14 166.841 217.917 166.916C217.695 166.99 217.489 167.108 217.312 167.262C217.135 167.417 216.991 167.605 216.887 167.815C216.784 168.026 216.724 168.256 216.71 168.49Z" fill="#263238"/>
<path d="M214.93 166.79C215.16 167.03 216.55 166 218.53 166.01C220.51 166.02 221.95 167.01 222.17 166.76C222.39 166.51 222.04 166.22 221.41 165.76C220.554 165.163 219.533 164.848 218.49 164.86C217.464 164.86 216.463 165.181 215.63 165.78C215 166.25 214.82 166.68 214.93 166.79Z" fill="#263238"/>
<path d="M236.14 169.32C236.134 169.799 236.317 170.26 236.647 170.606C236.978 170.952 237.431 171.154 237.91 171.17C238.143 171.189 238.378 171.161 238.601 171.088C238.824 171.015 239.03 170.898 239.207 170.745C239.384 170.591 239.528 170.404 239.632 170.193C239.735 169.983 239.796 169.754 239.81 169.52C239.813 169.041 239.63 168.58 239.3 168.233C238.97 167.886 238.518 167.681 238.04 167.66C237.806 167.642 237.57 167.671 237.348 167.746C237.125 167.82 236.919 167.938 236.742 168.092C236.565 168.247 236.421 168.435 236.318 168.646C236.214 168.856 236.154 169.086 236.14 169.32Z" fill="#263238"/>
<path d="M234.36 167.16C234.59 167.4 235.98 166.37 237.96 166.37C239.94 166.37 241.38 167.37 241.6 167.13C241.82 166.89 241.47 166.59 240.84 166.13C239.984 165.533 238.963 165.218 237.92 165.23C236.894 165.23 235.894 165.551 235.06 166.15C234.46 166.62 234.25 167.05 234.36 167.16Z" fill="#263238"/>
<path d="M227.19 181.82C226.148 181.493 225.07 181.298 223.98 181.24C223.47 181.19 222.98 181.09 222.91 180.74C222.866 180.221 222.981 179.702 223.24 179.25C223.72 178.03 224.24 176.74 224.74 175.4C226.81 169.93 228.31 165.4 228.09 165.35C227.87 165.3 226.01 169.64 223.94 175.11C223.44 176.46 222.94 177.75 222.51 178.98C222.192 179.596 222.096 180.302 222.24 180.98C222.314 181.156 222.428 181.314 222.571 181.44C222.715 181.566 222.886 181.659 223.07 181.71C223.35 181.789 223.639 181.829 223.93 181.83C225.013 181.962 226.108 181.959 227.19 181.82V181.82Z" fill="#263238"/>
<path d="M233.85 159.41C234.04 159.95 236.02 159.7 238.34 159.98C240.66 160.26 242.53 160.89 242.84 160.41C242.98 160.17 242.65 159.67 241.84 159.15C240.833 158.511 239.693 158.111 238.508 157.979C237.323 157.848 236.123 157.988 235 158.39C234.19 158.74 233.77 159.16 233.85 159.41Z" fill="#263238"/>
<path d="M215.66 161.07C216 161.52 217.37 161.07 219 161.07C220.63 161.07 222 161.37 222.35 160.9C222.49 160.68 222.27 160.23 221.66 159.8C220.847 159.288 219.899 159.03 218.939 159.061C217.978 159.091 217.049 159.408 216.27 159.97C215.69 160.39 215.5 160.85 215.66 161.07Z" fill="#263238"/>
<path d="M206.23 140.58C206.138 139.781 206.25 138.973 206.557 138.229C206.863 137.486 207.352 136.832 207.98 136.33C208.629 135.859 209.425 135.633 210.225 135.694C211.025 135.754 211.778 136.097 212.35 136.66C212.228 136.123 212.221 135.566 212.328 135.026C212.436 134.486 212.655 133.975 212.973 133.525C213.291 133.075 213.7 132.697 214.173 132.416C214.646 132.134 215.173 131.955 215.72 131.89C217.82 131.76 219.61 133.34 221.64 133.89C223.662 134.312 225.766 134.07 227.64 133.2C229.55 132.43 231.33 131.37 233.25 130.67C237.317 129.192 241.803 129.378 245.734 131.186C249.665 132.995 252.725 136.28 254.25 140.33C257.06 139.45 260.25 140.88 262 143.26C263.636 145.749 264.288 148.757 263.83 151.7C263.56 153.673 263.067 155.609 262.36 157.47C262.36 157.64 262.36 157.8 262.36 157.96C262.23 165.04 261.43 173.34 258.36 173.39C253.1 173.47 254.36 163.56 254.36 163.56C247.9 161.07 250.31 151.4 248.69 149.93C247.07 148.46 243.69 145.05 230.19 151.93C224.94 154.61 217.96 154.53 214.19 153.66L213.85 153.6H213.77L213.66 153.55C212.432 153.248 211.261 152.751 210.19 152.08C208.926 151.354 207.928 150.243 207.34 148.91C207.064 148.243 206.987 147.51 207.118 146.801C207.25 146.091 207.584 145.434 208.08 144.91C207.055 143.677 206.412 142.173 206.23 140.58V140.58Z" fill="#263238"/>
<path d="M225.51 187.9C225.786 188.698 226.17 189.455 226.65 190.15C226.898 190.494 227.216 190.781 227.583 190.993C227.95 191.205 228.358 191.337 228.78 191.38C229.231 191.38 229.674 191.266 230.069 191.05C230.464 190.833 230.798 190.52 231.04 190.14C231.517 189.372 231.737 188.472 231.67 187.57C231.67 186.75 231.26 185.78 230.46 185.69C230.113 185.675 229.769 185.751 229.46 185.91L225.21 187.63" fill="#AA6550"/>
<path d="M227.2 191.39C227.967 191.443 228.738 191.348 229.47 191.11C230.208 190.816 230.815 190.266 231.18 189.56C231.373 189.122 231.473 188.649 231.473 188.17C231.473 187.691 231.373 187.218 231.18 186.78C231.084 186.555 230.96 186.343 230.81 186.15C230.64 185.97 230.68 185.98 230.49 186C230.3 186.02 230.04 186.18 229.81 186.27L229.12 186.56C228.21 186.92 227.39 187.24 226.69 187.5C225.962 187.854 225.182 188.09 224.38 188.2C225.013 187.695 225.721 187.293 226.48 187.01L228.84 185.91L229.53 185.61C229.778 185.483 230.035 185.376 230.3 185.29C230.503 185.216 230.726 185.216 230.93 185.29C231.116 185.366 231.278 185.491 231.4 185.65C231.856 186.242 232.131 186.954 232.193 187.698C232.255 188.443 232.101 189.19 231.75 189.85C231.288 190.695 230.512 191.323 229.59 191.6C228.997 191.784 228.365 191.809 227.76 191.67C227.38 191.58 227.19 191.43 227.2 191.39Z" fill="#263238"/>
<path d="M249.22 148.74C249.269 148.221 249.269 147.699 249.22 147.18C248.994 145.78 248.287 144.503 247.22 143.57C245.608 142.211 243.534 141.527 241.43 141.66C238.852 141.831 236.316 142.398 233.91 143.34C232.633 143.782 231.335 144.159 230.02 144.47C226.676 145.203 223.2 145.072 219.92 144.09C218.529 143.678 217.188 143.115 215.92 142.41C215.576 142.224 215.242 142.02 214.92 141.8C214.797 141.735 214.686 141.65 214.59 141.55C214.59 141.55 215.08 141.83 215.98 142.28C217.258 142.931 218.598 143.454 219.98 143.84C222.014 144.4 224.121 144.65 226.23 144.58C227.472 144.537 228.707 144.38 229.92 144.11C231.19 143.82 232.47 143.41 233.78 142.98C236.222 142.023 238.801 141.459 241.42 141.31C243.613 141.184 245.767 141.924 247.42 143.37C248.527 144.351 249.238 145.702 249.42 147.17C249.476 147.702 249.408 148.239 249.22 148.74V148.74Z" fill="#455A64"/>
<path d="M259.22 170.48C259.153 170.397 259.096 170.306 259.05 170.21C258.95 170.03 258.81 169.75 258.65 169.39C258.211 168.359 257.876 167.287 257.65 166.19C257.296 164.548 257.185 162.864 257.32 161.19C257.558 159.166 257.939 157.161 258.46 155.19C258.971 153.253 258.971 151.217 258.46 149.28C258.22 148.452 257.8 147.687 257.23 147.04C256.724 146.488 256.088 146.072 255.38 145.83C254.353 145.445 253.216 145.473 252.21 145.91C251.853 146.104 251.518 146.335 251.21 146.6C251.443 146.254 251.759 145.972 252.13 145.78C252.643 145.524 253.202 145.374 253.774 145.338C254.346 145.302 254.919 145.381 255.46 145.57C256.223 145.812 256.912 146.246 257.46 146.83C258.073 147.506 258.53 148.308 258.8 149.18C259.331 151.175 259.331 153.275 258.8 155.27C258.291 157.221 257.901 159.202 257.63 161.2C257.49 162.834 257.574 164.479 257.88 166.09C258.085 167.178 258.386 168.245 258.78 169.28C259.06 170.07 259.25 170.46 259.22 170.48Z" fill="#455A64"/>
<path d="M250.45 147.7C250.434 147.527 250.434 147.353 250.45 147.18C250.45 146.81 250.45 146.32 250.45 145.71C250.541 143.91 250.342 142.107 249.86 140.37C249.506 139.184 248.921 138.08 248.14 137.12C247.261 136.013 246.053 135.214 244.69 134.84C243.167 134.49 241.579 134.556 240.09 135.03C238.48 135.545 236.937 136.246 235.49 137.12C234.021 138.006 232.495 138.791 230.92 139.47C229.419 140.052 227.829 140.37 226.22 140.41C224.765 140.45 223.312 140.272 221.91 139.88C220.695 139.536 219.524 139.053 218.42 138.44C216.824 137.543 215.418 136.344 214.28 134.91C213.967 134.527 213.686 134.119 213.44 133.69C213.342 133.549 213.258 133.398 213.19 133.24C213.309 133.364 213.414 133.501 213.5 133.65C213.771 134.059 214.068 134.45 214.39 134.82C215.56 136.192 216.97 137.341 218.55 138.21C219.642 138.793 220.796 139.252 221.99 139.58C223.365 139.949 224.787 140.11 226.21 140.06C227.779 140.011 229.328 139.693 230.79 139.12C232.343 138.443 233.849 137.664 235.3 136.79C236.772 135.9 238.347 135.191 239.99 134.68C241.542 134.191 243.197 134.133 244.78 134.51C246.208 134.911 247.472 135.754 248.39 136.92C249.178 137.922 249.765 139.066 250.12 140.29C250.585 142.06 250.747 143.896 250.6 145.72C250.6 146.36 250.51 146.85 250.48 147.19C250.495 147.361 250.485 147.532 250.45 147.7V147.7Z" fill="#455A64"/>
<path d="M264.29 216.67C264.29 216.67 295 226.48 297 231.8C298.53 235.8 314.65 284.16 318.12 315.69C318.442 318.748 318.153 321.839 317.267 324.783C316.382 327.727 314.92 330.466 312.965 332.839C311.01 335.211 308.602 337.171 305.881 338.603C303.161 340.036 300.182 340.911 297.12 341.18C276.35 343.09 246.2 345.57 246.2 343.86V317.71L285.31 312L270.84 269.47L264.29 216.67Z" fill="#263238"/>
<path d="M224.93 338.58C228.93 339.58 246.25 339.58 246.25 339.58V319.07C246.25 319.07 238.71 315.86 236.63 313.98C234.55 312.1 228.63 301.07 228.63 301.07C227.574 301.708 226.743 302.66 226.256 303.793C225.768 304.927 225.647 306.185 225.91 307.39C226.91 311.9 228.75 312.45 228.91 314.24C228.91 314.24 229.07 314.71 229.07 314.73C229.48 317.23 227.07 319.44 227.07 319.44C226.278 318.842 225.388 318.385 224.44 318.09C220.8 317.66 216.44 320.27 216.44 321.73C216.44 321.73 216.32 325.66 216.44 326.25C216.56 326.84 218.44 327.61 218.44 327.61C218.44 327.61 217.86 330.23 218.44 331.4C219.093 332.277 219.966 332.967 220.97 333.4C220.97 333.4 222.67 338 224.93 338.58Z" fill="#B78876"/>
<path d="M229.13 335.28C226.323 335.591 223.492 334.972 221.07 333.52C221.13 333.38 222.85 334.07 225.07 334.52C227.29 334.97 229.13 335.13 229.13 335.28Z" fill="#AA6550"/>
<path d="M228.11 329.13C226.575 329.586 224.954 329.671 223.38 329.38C221.785 329.253 220.244 328.742 218.89 327.89C218.95 327.75 220.89 328.53 223.45 328.89C226.01 329.25 228.09 329 228.11 329.13Z" fill="#AA6550"/>
<path d="M227.51 311.49C228.125 312.233 228.597 313.084 228.9 314C229.088 314.46 229.238 314.935 229.35 315.42C229.499 315.994 229.499 316.596 229.35 317.17C228.941 318.452 228.052 319.527 226.87 320.17C226.277 320.52 225.632 320.774 224.96 320.92C224.34 321.04 223.711 321.103 223.08 321.11C221.9 321.11 220.84 321.11 219.96 321.16C218.19 321.16 217.13 321.42 217.1 321.35C217.998 320.972 218.965 320.781 219.94 320.79C220.83 320.72 221.94 320.7 223.06 320.63C223.661 320.608 224.26 320.538 224.85 320.42C225.469 320.28 226.063 320.043 226.61 319.72C227.685 319.132 228.499 318.161 228.89 317C229.024 316.495 229.024 315.965 228.89 315.46C228.804 314.995 228.684 314.537 228.53 314.09C228 312.49 227.44 311.53 227.51 311.49Z" fill="#AA6550"/>
<path d="M285.79 311.88C285.286 312.031 284.771 312.142 284.25 312.21L280.03 312.93C276.46 313.52 271.53 314.3 266.03 315.13C260.53 315.96 255.62 316.66 252.03 317.13C248.44 317.6 246.21 317.84 246.21 317.7L247.75 317.44L251.98 316.76L265.98 314.6C271.44 313.78 276.38 313.05 279.98 312.6L284.22 312.04C284.737 311.937 285.263 311.884 285.79 311.88V311.88Z" fill="#455A64"/>
<path d="M302.38 308C301.355 308.083 300.325 308.083 299.3 308C297.4 307.92 294.78 307.77 291.89 307.57C290.561 307.4 289.214 307.416 287.89 307.62C287.369 307.71 286.871 307.902 286.425 308.185C285.978 308.468 285.593 308.837 285.29 309.27C284.91 309.881 284.778 310.614 284.92 311.32C285.04 311.81 285.23 312.05 285.19 312.08C285.15 312.11 284.92 311.9 284.73 311.37C284.61 310.992 284.57 310.594 284.611 310.2C284.652 309.806 284.774 309.425 284.97 309.08C285.283 308.585 285.694 308.159 286.177 307.827C286.66 307.495 287.205 307.265 287.78 307.15C289.147 306.91 290.542 306.876 291.92 307.05C294.82 307.25 297.43 307.46 299.32 307.63C300.348 307.668 301.372 307.792 302.38 308V308Z" fill="#455A64"/>
<path d="M296 315.17C294.104 314.888 292.24 314.43 290.43 313.8C288.57 313.338 286.756 312.709 285.01 311.92C286.904 312.214 288.768 312.676 290.58 313.3C292.437 313.767 294.25 314.392 296 315.17Z" fill="#455A64"/>
<path d="M271.72 264C271.85 264 275 273.9 278.72 286.21C282.44 298.52 285.4 308.53 285.26 308.57C285.12 308.61 281.97 298.67 278.26 286.36C274.55 274.05 271.58 264.05 271.72 264Z" fill="#455A64"/>
<path d="M294.62 232.54C294.62 232.64 292.82 232.91 290.09 233.97C286.525 235.336 283.291 237.443 280.6 240.151C277.909 242.859 275.823 246.107 274.48 249.68C273.48 252.42 273.19 254.24 273.09 254.22C273.085 253.792 273.135 253.365 273.24 252.95C273.451 251.798 273.752 250.665 274.14 249.56C275.411 245.88 277.499 242.535 280.245 239.774C282.991 237.014 286.326 234.91 290 233.62C291.102 233.229 292.231 232.921 293.38 232.7C293.786 232.6 294.202 232.546 294.62 232.54Z" fill="#455A64"/>
<path d="M192.54 253.87C192.573 254.102 192.593 254.336 192.6 254.57C192.6 255.08 192.6 255.74 192.66 256.57C192.66 258.36 192.75 260.85 192.81 263.9C192.89 270.15 192.99 278.68 193.1 288.1C193.21 297.52 193.21 306.1 193.25 312.29C193.25 315.34 193.25 317.83 193.25 319.62V321.62C193.278 321.849 193.278 322.081 193.25 322.31C193.205 322.083 193.184 321.852 193.19 321.62C193.19 321.11 193.19 320.45 193.13 319.62C193.13 317.82 193.04 315.33 192.98 312.28C192.9 306.04 192.8 297.51 192.68 288.09C192.56 278.67 192.58 270.14 192.54 263.89C192.54 260.84 192.54 258.35 192.54 256.56C192.54 255.74 192.54 255.08 192.54 254.56C192.513 254.331 192.513 254.099 192.54 253.87Z" fill="#455A64"/>
<path d="M240.89 467.08C240.797 466.837 240.727 466.586 240.68 466.33C240.56 465.78 240.4 465.06 240.19 464.16C239.77 462.27 239.19 459.53 238.51 456.16C237.15 449.38 235.4 439.99 233.74 429.57C232.08 419.15 230.81 409.68 229.99 402.81C229.58 399.38 229.28 396.6 229.09 394.68L228.88 392.46C228.853 392.201 228.853 391.939 228.88 391.68C228.941 391.934 228.988 392.191 229.02 392.45C229.09 393 229.19 393.73 229.32 394.65C229.58 396.65 229.94 399.38 230.39 402.77C231.3 409.62 232.62 419.08 234.28 429.49C235.94 439.9 237.63 449.3 238.9 456.09C239.54 459.45 240.05 462.18 240.42 464.14C240.58 465.05 240.72 465.78 240.82 466.33C240.865 466.577 240.888 466.828 240.89 467.08Z" fill="#263238"/>
<path d="M297.17 341.18C297.17 341.32 285.9 342.18 271.98 343.1C258.06 344.02 246.78 344.65 246.77 344.5C246.76 344.35 258.03 343.5 271.95 342.58C285.87 341.66 297.16 341 297.17 341.18Z" fill="#455A64"/>
<path d="M515.23 110.05L526.72 122.05C527.083 122.435 527.583 122.66 528.111 122.677C528.64 122.694 529.153 122.501 529.54 122.14L575.25 78.24C575.436 78.0543 575.584 77.8337 575.684 77.5909C575.785 77.3481 575.837 77.0878 575.837 76.825C575.837 76.5622 575.785 76.3019 575.684 76.0591C575.584 75.8163 575.436 75.5958 575.25 75.41L563.76 63.41C563.397 63.0253 562.897 62.7999 562.369 62.783C561.84 62.7661 561.327 62.9592 560.94 63.32L515.24 107.22C515.053 107.405 514.905 107.625 514.804 107.868C514.702 108.11 514.649 108.37 514.648 108.633C514.648 108.896 514.698 109.156 514.798 109.399C514.898 109.643 515.045 109.864 515.23 110.05Z" fill="#F5F5F5"/>
<path d="M515.23 110.05C515.119 109.952 515.025 109.838 514.95 109.71C514.71 109.336 514.601 108.893 514.64 108.45C514.666 108.123 514.773 107.807 514.95 107.53C515.194 107.222 515.465 106.938 515.76 106.68L517.84 104.68L531.12 91.84C536.75 86.42 543.44 79.98 550.86 72.84L556.57 67.35L559.52 64.51C560.03 64.04 560.52 63.56 561.04 63.07C561.349 62.8462 561.711 62.7072 562.09 62.6668C562.469 62.6264 562.852 62.6862 563.2 62.84C563.539 63.0013 563.839 63.2332 564.08 63.52L564.82 64.28C565.31 64.79 565.82 65.28 566.3 65.82C567.28 66.8533 568.28 67.89 569.3 68.93L575.4 75.29C575.683 75.5801 575.881 75.9428 575.971 76.3381C576.061 76.7334 576.04 77.1459 575.91 77.53C575.776 77.9152 575.546 78.2596 575.24 78.53L574.44 79.29L571.28 82.29L565.11 88.22L553.42 99.39L533.62 118.39L529.62 122.24C529.286 122.545 528.861 122.734 528.41 122.777C527.959 122.821 527.507 122.716 527.12 122.48C526.78 122.239 526.471 121.957 526.2 121.64L525.39 120.78L519.88 115L516.42 111.35L515.53 110.35L515.23 110.01C515.23 110.01 515.35 110.11 515.56 110.32L516.47 111.25L519.98 114.85C521.5 116.42 523.35 118.34 525.51 120.56C525.78 120.84 526.05 121.13 526.33 121.41C526.585 121.716 526.877 121.988 527.2 122.22C527.549 122.431 527.956 122.523 528.362 122.483C528.767 122.444 529.149 122.274 529.45 122L533.45 118.13L553.19 99.13L564.86 87.91L571 82L574.16 79L574.96 78.23C575.225 78.0109 575.426 77.724 575.54 77.4C575.646 77.0771 575.662 76.7315 575.586 76.4003C575.511 76.069 575.346 75.7647 575.11 75.52L569 69.13L566 66.02C565.5 65.51 565 65.02 564.52 64.48L563.79 63.72C563.579 63.4639 563.312 63.2588 563.01 63.12C562.719 62.9869 562.398 62.9344 562.079 62.9678C561.761 63.0012 561.457 63.1194 561.2 63.31C560.71 63.74 560.2 64.25 559.7 64.72C558.7 65.72 557.7 66.62 556.7 67.55L551.09 73L531.29 92L517.93 104.77L515.83 106.77C515.538 107.021 515.27 107.299 515.03 107.6C514.848 107.856 514.737 108.157 514.71 108.47C514.663 108.902 514.758 109.337 514.98 109.71C515.058 109.827 515.141 109.941 515.23 110.05V110.05Z" fill="#263238"/>
<path d="M561.757 64.9073L553.458 72.9834L565.237 85.0879L573.536 77.0118L561.757 64.9073Z" fill="#5C6E9B"/>
<path d="M534.727 91.2068L526.428 99.2828L538.208 111.387L546.507 103.311L534.727 91.2068Z" fill="#5C6E9B"/>
<path d="M543.748 82.4338L535.449 90.5099L547.229 102.614L555.528 94.5383L543.748 82.4338Z" fill="#5C6E9B"/>
<path d="M552.777 73.6538L544.478 81.7299L556.257 93.8344L564.556 85.7583L552.777 73.6538Z" fill="#5C6E9B"/>
<g opacity="0.8">
<path opacity="0.8" d="M561.757 64.9073L553.458 72.9834L565.237 85.0879L573.536 77.0118L561.757 64.9073Z" fill="black"/>
</g>
<g opacity="0.5">
<path opacity="0.5" d="M534.727 91.2068L526.428 99.2828L538.208 111.387L546.507 103.311L534.727 91.2068Z" fill="black"/>
</g>
<g opacity="0.6">
<path opacity="0.6" d="M543.748 82.4338L535.449 90.5099L547.229 102.614L555.528 94.5383L543.748 82.4338Z" fill="black"/>
</g>
<g opacity="0.7">
<path opacity="0.7" d="M552.777 73.6538L544.478 81.7299L556.257 93.8344L564.556 85.7583L552.777 73.6538Z" fill="black"/>
</g>
<path d="M516 108L524 122.51C524.25 122.971 524.671 123.315 525.172 123.468C525.673 123.621 526.215 123.572 526.68 123.33L581.35 93.1099C581.801 92.8429 582.13 92.4091 582.264 91.9022C582.399 91.3954 582.329 90.8558 582.07 90.3999L574.07 75.8899C573.821 75.4276 573.401 75.0815 572.9 74.9262C572.398 74.7709 571.856 74.819 571.39 75.0599L516.73 105.3C516.279 105.565 515.951 105.996 515.814 106.501C515.678 107.006 515.745 107.544 516 108V108Z" fill="#F5F5F5"/>
<path d="M516 108C515.914 107.879 515.85 107.743 515.81 107.6C515.668 107.182 515.668 106.728 515.81 106.31C515.914 106.004 516.092 105.729 516.33 105.51C516.643 105.272 516.978 105.065 517.33 104.89L519.83 103.49L535.83 94.5999L559.54 81.4499L566.39 77.66L569.93 75.66L570.83 75.16C571.147 74.9707 571.482 74.8133 571.83 74.6899C572.195 74.5939 572.578 74.5941 572.943 74.6905C573.307 74.7869 573.64 74.9762 573.91 75.2399C574.158 75.5071 574.364 75.8106 574.52 76.1399L575.03 77.0599L576 78.9999L578 82.6899C579.393 85.2033 580.8 87.7466 582.22 90.3199C582.417 90.668 582.516 91.0633 582.505 91.4633C582.495 91.8633 582.375 92.2528 582.16 92.5899C581.938 92.9178 581.635 93.183 581.28 93.3599L580.28 93.8799L576.56 95.9999L569.15 100.09L555.15 107.83L531.39 120.9C529.69 121.82 528.11 122.72 526.55 123.54C526.132 123.702 525.673 123.725 525.241 123.606C524.809 123.487 524.426 123.233 524.15 122.88C523.68 122.17 523.35 121.47 522.97 120.8L519.19 113.91L516.81 109.54C516.55 109.05 516.35 108.67 516.2 108.4L516 108C516 108 516.08 108.12 516.23 108.38L516.87 109.5L519.3 113.83L523.13 120.7C523.51 121.35 523.87 122.09 524.3 122.7C524.549 123.017 524.894 123.245 525.283 123.352C525.672 123.458 526.084 123.436 526.46 123.29C527.97 122.48 529.58 121.56 531.26 120.63L555 107.53L569 99.7699L576.41 95.6699L580.2 93.5799L581.2 93.0499C581.506 92.9038 581.768 92.6796 581.96 92.3999C582.139 92.1155 582.239 91.7879 582.247 91.4518C582.256 91.1157 582.174 90.7834 582.01 90.4899L577.79 82.8599L575.73 79.12L574.73 77.2799L574.22 76.3599C574.079 76.0604 573.894 75.7839 573.67 75.5399C573.447 75.3147 573.169 75.1525 572.863 75.07C572.558 74.9874 572.236 74.9874 571.93 75.0699C571.619 75.186 571.321 75.3335 571.04 75.5099L570.14 75.9999L566.6 77.9999L559.74 81.7799L535.92 94.8299L519.92 103.62L517.39 105C517.038 105.158 516.703 105.353 516.39 105.58C516.159 105.792 515.98 106.056 515.87 106.35C515.741 106.757 515.741 107.193 515.87 107.6C515.94 107.88 516 108 516 108Z" fill="#263238"/>
<path d="M571.048 77.7171L560.947 83.3806L569.208 98.1127L579.308 92.4492L571.048 77.7171Z" fill="#5C6E9B"/>
<path d="M538.154 96.1706L528.054 101.834L536.314 116.566L546.415 110.903L538.154 96.1706Z" fill="#5C6E9B"/>
<path d="M549.129 90.0175L539.028 95.681L547.289 110.413L557.389 104.75L549.129 90.0175Z" fill="#5C6E9B"/>
<path d="M560.122 83.8495L550.021 89.5131L558.282 104.245L568.383 98.5817L560.122 83.8495Z" fill="#5C6E9B"/>
<g opacity="0.5">
<path opacity="0.5" d="M571.048 77.717L560.947 83.3805L569.208 98.1126L579.308 92.4491L571.048 77.717Z" fill="black"/>
</g>
<g opacity="0.2">
<path opacity="0.2" d="M538.154 96.1706L528.054 101.834L536.314 116.566L546.415 110.903L538.154 96.1706Z" fill="black"/>
</g>
<g opacity="0.3">
<path opacity="0.3" d="M549.129 90.0176L539.028 95.6812L547.289 110.413L557.389 104.75L549.129 90.0176Z" fill="black"/>
</g>
<g opacity="0.4">
<path opacity="0.4" d="M560.122 83.8497L550.021 89.5132L558.282 104.245L568.383 98.5818L560.122 83.8497Z" fill="black"/>
</g>
<path d="M514 107.88L517.54 124.07C517.594 124.333 517.701 124.582 517.853 124.803C518.006 125.024 518.202 125.212 518.428 125.356C518.655 125.499 518.908 125.596 519.173 125.64C519.438 125.683 519.709 125.673 519.97 125.61L584.08 111.61C584.344 111.559 584.594 111.456 584.817 111.306C585.04 111.156 585.23 110.963 585.376 110.738C585.523 110.513 585.623 110.261 585.67 109.997C585.717 109.733 585.71 109.462 585.65 109.2L582.1 93C582.045 92.7379 581.937 92.4897 581.784 92.2699C581.631 92.0502 581.436 91.8634 581.209 91.7207C580.982 91.578 580.729 91.4823 580.465 91.4392C580.201 91.3962 579.93 91.4066 579.67 91.47L515.56 105.47C515.297 105.522 515.048 105.626 514.826 105.777C514.605 105.927 514.416 106.12 514.27 106.345C514.125 106.57 514.026 106.821 513.98 107.085C513.933 107.349 513.94 107.619 514 107.88Z" fill="#F5F5F5"/>
<path d="M514 107.88C513.96 107.73 513.94 107.575 513.94 107.42C513.938 106.962 514.093 106.517 514.38 106.16C514.592 105.898 514.863 105.689 515.17 105.55C515.548 105.418 515.936 105.318 516.33 105.25L519.24 104.6L537.77 100.49L565.27 94.49L573.27 92.75L577.38 91.85L579.46 91.39C579.827 91.2846 580.214 91.2641 580.59 91.33C580.963 91.4071 581.309 91.5833 581.59 91.84C581.895 92.1045 582.118 92.4518 582.23 92.84C582.34 93.23 582.4 93.56 582.48 93.92C582.63 94.63 582.79 95.34 582.95 96.06C583.26 97.49 583.58 98.94 583.95 100.39C584.58 103.3 585.23 106.25 585.88 109.24C585.967 109.647 585.937 110.071 585.794 110.462C585.65 110.853 585.399 111.195 585.07 111.45C584.742 111.689 584.361 111.847 583.96 111.91L582.85 112.15L578.45 113.15L569.86 115.03L553.61 118.57L526.09 124.57L520.5 125.78C520.28 125.78 520.07 125.88 519.83 125.92C519.601 125.955 519.369 125.955 519.14 125.92C518.689 125.827 518.281 125.588 517.98 125.24C517.698 124.907 517.515 124.502 517.45 124.07C517.37 123.66 517.28 123.27 517.2 122.88C516.53 119.77 515.95 117.09 515.48 114.88L514.41 109.88C514.3 109.31 514.21 108.88 514.14 108.57C514.07 108.26 514.06 108.12 514.06 108.12C514.06 108.12 514.06 108.27 514.18 108.56L514.48 109.87C514.74 111.03 515.12 112.73 515.62 114.87C516.12 117.01 516.7 119.74 517.39 122.87C517.47 123.26 517.56 123.65 517.65 124.05C517.7 124.451 517.871 124.828 518.14 125.13C518.401 125.433 518.751 125.646 519.14 125.74C519.565 125.806 520 125.772 520.41 125.64L526 124.4L553.5 118.4L569.75 114.84L578.34 112.96L582.74 111.96L583.84 111.72C584.202 111.675 584.547 111.538 584.84 111.32C585.12 111.108 585.333 110.82 585.455 110.49C585.578 110.161 585.603 109.804 585.53 109.46C584.88 106.46 584.23 103.52 583.6 100.62C583.28 99.16 582.96 97.72 582.65 96.28C582.49 95.57 582.34 94.85 582.18 94.14C582.1 93.8 582.03 93.42 581.95 93.14C581.841 92.8261 581.655 92.5442 581.41 92.32C581.156 92.1026 580.851 91.9543 580.524 91.8895C580.196 91.8247 579.857 91.8455 579.54 91.95L577.45 92.41L573.34 93.3L565.39 95.03L537.88 101.03L519.32 105.03L516.4 105.65C516.011 105.719 515.627 105.812 515.25 105.93C514.952 106.061 514.688 106.259 514.48 106.51C514.2 106.853 514.042 107.278 514.03 107.72C514 107.72 514 107.88 514 107.88Z" fill="#263238"/>
<path d="M513.86 107.94C513.86 108.01 513.05 107.94 511.64 108.22C509.663 108.602 507.815 109.479 506.27 110.77C503.986 112.701 502.55 115.452 502.27 118.43C502.086 120.627 502.552 122.829 503.611 124.763C504.669 126.697 506.272 128.277 508.222 129.306C510.171 130.336 512.38 130.77 514.574 130.553C516.768 130.337 518.849 129.48 520.56 128.09C521.872 127.012 522.931 125.659 523.66 124.126C524.389 122.593 524.772 120.918 524.78 119.22C524.78 118.87 524.78 118.55 524.78 118.22C524.78 117.89 524.78 117.72 524.71 117.53C524.684 117.334 524.684 117.136 524.71 116.94C524.797 117.116 524.855 117.305 524.88 117.5C524.88 117.69 524.98 117.92 525.02 118.2C525.06 118.48 525.08 118.81 525.11 119.2C525.208 121.291 524.723 123.368 523.71 125.2C522.965 126.566 521.954 127.769 520.736 128.738C519.518 129.707 518.119 130.421 516.62 130.84C514.777 131.365 512.833 131.43 510.959 131.029C509.084 130.628 507.337 129.773 505.87 128.54C505.116 127.895 504.445 127.159 503.87 126.35C503.313 125.551 502.853 124.688 502.5 123.78C501.849 122.147 501.578 120.387 501.707 118.633C501.837 116.88 502.365 115.179 503.25 113.66C504.12 112.144 505.324 110.846 506.771 109.866C508.218 108.885 509.87 108.247 511.6 108C512.156 107.92 512.719 107.894 513.28 107.92C513.473 107.897 513.669 107.904 513.86 107.94V107.94Z" fill="#263238"/>
<path d="M526.55 114.45C526.655 114.937 526.614 115.444 526.431 115.908C526.248 116.371 525.932 116.77 525.522 117.054C525.113 117.337 524.628 117.493 524.13 117.502C523.632 117.51 523.142 117.371 522.723 117.101C522.304 116.832 521.975 116.444 521.776 115.987C521.577 115.531 521.518 115.025 521.607 114.535C521.695 114.044 521.927 113.591 522.273 113.233C522.619 112.874 523.063 112.626 523.55 112.52C523.874 112.449 524.208 112.443 524.534 112.502C524.86 112.561 525.172 112.684 525.45 112.863C525.729 113.042 525.97 113.275 526.158 113.547C526.347 113.819 526.48 114.126 526.55 114.45V114.45Z" fill="#263238"/>
<path d="M580.127 93.5902L568.814 96.063L572.421 112.563L583.734 110.091L580.127 93.5902Z" fill="#5C6E9B"/>
<path d="M567.893 96.2722L556.58 98.745L560.186 115.245L571.499 112.773L567.893 96.2722Z" fill="#5C6E9B"/>
<path d="M555.581 98.9588L544.268 101.432L547.875 117.932L559.188 115.459L555.581 98.9588Z" fill="#5C6E9B"/>
<path d="M543.287 101.644L531.974 104.116L535.581 120.617L546.894 118.144L543.287 101.644Z" fill="#5C6E9B"/>
<g opacity="0.8">
<path opacity="0.8" d="M543.287 101.644L531.974 104.116L535.581 120.617L546.894 118.144L543.287 101.644Z" fill="white"/>
</g>
<g opacity="0.6">
<path opacity="0.6" d="M555.581 98.9587L544.268 101.432L547.875 117.932L559.188 115.459L555.581 98.9587Z" fill="white"/>
</g>
<g opacity="0.4">
<path opacity="0.4" d="M567.893 96.2721L556.58 98.7449L560.186 115.245L571.499 112.772L567.893 96.2721Z" fill="white"/>
</g>
<path d="M230.22 75.52L233.36 92.15L235.93 87.51L241.47 95.8L244.23 93.94L238.7 85.65L243.78 84.87L230.22 75.52Z" fill="#263238"/>
</svg>
